<svg xmlns="http://www.w3.org/2000/svg" viewBox="0 0 332.74 430.6"><defs><style>.a{fill:#efeeef;}.b{fill:#bbbdbf;}.c{fill:#808184;}.d{fill:#ffaa6e;}.e,.g{fill:none;}.e{stroke:#58595b;stroke-miterlimit:10;stroke-width:6px;}.f{fill:#be5252;}.g{stroke:#bbbdbf;stroke-linecap:round;stroke-linejoin:round;stroke-width:3px;}.h{fill:#52a5be;}.i{fill:#68be52;}</style></defs><path class="a" d="M39.14,0H293.59a39.15,39.15,0,0,1,39.15,39.15V391.46a39.15,39.15,0,0,1-39.15,39.15H39.15A39.15,39.15,0,0,1,0,391.46V39.14A39.14,39.14,0,0,1,39.14,0Z"/><rect class="b" x="167.76" y="370.03" width="125.55" height="10.17"/><rect class="b" x="167.76" y="350.03" width="125.55" height="10.17"/><rect class="b" x="167.76" y="330.03" width="125.55" height="10.17"/><rect class="b" x="167.76" y="310.03" width="125.55" height="10.17"/><rect class="c" x="167.76" y="275.02" width="125.55" height="20.19"/><path class="d" d="M140.86,275.11H118.34a3.76,3.76,0,0,0-3.75,3.75v97.59a3.76,3.76,0,0,0,3.75,3.75h22.52a3.77,3.77,0,0,0,3.76-3.75V278.86a3.77,3.77,0,0,0-3.76-3.75"/><path class="d" d="M103.33,290.12H80.81a3.76,3.76,0,0,0-3.75,3.75v82.58a3.76,3.76,0,0,0,3.75,3.75h22.52a3.76,3.76,0,0,0,3.75-3.75V293.87a3.76,3.76,0,0,0-3.75-3.75"/><path class="d" d="M65.8,305.13H43.28a3.77,3.77,0,0,0-3.76,3.76v67.56a3.77,3.77,0,0,0,3.76,3.75H65.8a3.76,3.76,0,0,0,3.75-3.75V308.89a3.77,3.77,0,0,0-3.75-3.76"/><line class="e" x1="216.35" y1="183.63" x2="266.35" y2="193.63"/><line class="e" x1="166.35" y1="216" x2="216.35" y2="183.63"/><line class="e" x1="116.35" y1="203.63" x2="166.35" y2="216"/><line class="e" x1="66.35" y1="225.08" x2="116.35" y2="203.63"/><path class="f" d="M254.9,195.08a11.45,11.45,0,1,1,11.45,11.45,11.44,11.44,0,0,1-11.45-11.45"/><path class="f" d="M204.9,185.08a11.45,11.45,0,1,1,11.45,11.45,11.44,11.44,0,0,1-11.45-11.45"/><path class="f" d="M154.9,215.08a11.45,11.45,0,1,1,11.45,11.45,11.44,11.44,0,0,1-11.45-11.45"/><path class="f" d="M104.9,205.08a11.45,11.45,0,1,1,11.45,11.45,11.44,11.44,0,0,1-11.45-11.45"/><path class="f" d="M54.9,225.08a11.45,11.45,0,1,1,11.45,11.45A11.44,11.44,0,0,1,54.9,225.08"/><polyline class="g" points="38.9 167.5 38.9 247.5 293.31 247.5"/><path class="h" d="M240.76,90.89v-50a50,50,0,1,0,44.71,27.63Z"/><path class="i" d="M292.61,54.26A50,50,0,0,0,247.9,26.64v50Z"/><rect class="b" x="73.24" y="129.35" width="91.21" height="11.45"/><rect class="b" x="73.24" y="100.35" width="91.21" height="11.45"/><rect class="b" x="73.24" y="71.01" width="91.21" height="11.45"/><rect class="b" x="73.24" y="41.67" width="91.21" height="11.45"/><path class="c" d="M38.9,135.08a11.45,11.45,0,1,1,11.45,11.45A11.44,11.44,0,0,1,38.9,135.08"/><path class="c" d="M38.9,106.08a11.45,11.45,0,1,1,11.45,11.45A11.44,11.44,0,0,1,38.9,106.08"/><path class="c" d="M38.9,76.74A11.45,11.45,0,1,1,50.35,88.18,11.44,11.44,0,0,1,38.9,76.74"/><path class="c" d="M38.9,47.39A11.45,11.45,0,1,1,50.35,58.84,11.44,11.44,0,0,1,38.9,47.39"/></svg>