<svg xmlns="http://www.w3.org/2000/svg" viewBox="0 0 195.92 157.78"><defs><style>.a,.b,.c{fill:#555;}.b,.c{fill-rule:evenodd;}.c{stroke:#555;stroke-miterlimit:28.11;stroke-width:0.7px;}</style></defs><path class="a" d="M159.18,170.84A7.13,7.13,0,0,0,152,178V294.31a7.13,7.13,0,0,0,7.14,7.15h68.65v22H220a2.6,2.6,0,1,0,0,5.2H280a2.6,2.6,0,1,0,0-5.2h-7.78v-22h68.64a7.14,7.14,0,0,0,7.15-7.15V178a7.14,7.14,0,0,0-7.15-7.15Zm2,8.85H338.86V291.86H161.14Z" transform="translate(-152.04 -170.84)"/><path class="b" d="M320.71,203.87,291.42,236,253,228.84l-29.77,29.3-26.74-11L172.8,275.24l2.69,2.25,22-26.12L224,262.27l30.13-29.65,38.57,7.14,30.6-33.51-2.59-2.38Z" transform="translate(-152.04 -170.84)"/><path class="c" d="M176.37,273.44a3.51,3.51,0,1,1-5,.42A3.51,3.51,0,0,1,176.37,273.44Z" transform="translate(-152.04 -170.84)"/><path class="c" d="M200.32,248.14a3.52,3.52,0,1,1-4.25-2.57,3.52,3.52,0,0,1,4.25,2.57Z" transform="translate(-152.04 -170.84)"/><path class="c" d="M227,259.39a3.52,3.52,0,1,1-4.13-2.77A3.51,3.51,0,0,1,227,259.39Z" transform="translate(-152.04 -170.84)"/><path class="c" d="M256.84,229.87a3.51,3.51,0,1,1-4.38-2.33A3.51,3.51,0,0,1,256.84,229.87Z" transform="translate(-152.04 -170.84)"/><path class="c" d="M295.33,236.9a3.52,3.52,0,1,1-4.45-2.21A3.53,3.53,0,0,1,295.33,236.9Z" transform="translate(-152.04 -170.84)"/><path class="c" d="M324.34,202.46a3.51,3.51,0,1,1-5,.23A3.52,3.52,0,0,1,324.34,202.46Z" transform="translate(-152.04 -170.84)"/></svg>