<svg xmlns="http://www.w3.org/2000/svg" viewBox="0 0 548.95 466.11"><defs><style>.a{fill:#f2f2f2;}.a,.b,.c{stroke:#000;stroke-miterlimit:10;stroke-width:0.5px;}.b,.q,.t{fill:#ccc;}.c,.j{fill:#fff;}.d,.e{fill:#333;}.d,.t{fill-rule:evenodd;}.f{fill:#ececec;}.g{fill:#4fc3f7;}.h{fill:#43a047;}.i{fill:#4caf50;}.k{fill:#ffd54f;}.l{fill:#ba68c8;}.m{fill:#ef5350;}.n{fill:#66bb6a;}.o{fill:#64b5f6;}.p{fill:#b3b3b3;}.r{fill:#e6e6e6;}.s{fill:#607d8b;}.u{fill:#ffa000;}.v{fill:#ff6f00;}.w{fill:gray;}.x{fill:#ab47bc;}.y{fill:#9c27b0;}.z{fill:#7e57c2;}.aa{fill:#424242;}.ab{fill:#03a9f4;}.ac{fill:#009688;}.ad{fill:#ffeb3b;}.ae{fill:#f44336;}</style></defs><path class="a" d="M305.82,426l121.25,2.74,10,94.89H295.36Z" transform="translate(-91.72 -57.75)"/><path class="b" d="M305.82,426l-3.17,29.54H429.89l-2.82-26.8L305.82,426Z" transform="translate(-91.72 -57.75)"/><rect class="c" x="0.25" y="30.86" width="548.45" height="360.11" rx="24.97"/><path class="d" d="M91.89,81V398.51H640.51V81Zm12.94,16.41H625.19L555.4,358.92l-390-26.08Z" transform="translate(-91.72 -57.75)"/><rect class="e" x="0.18" width="548.57" height="151.18" rx="28.39"/><rect class="f" x="22.36" y="24.12" width="504.24" height="290.53"/><rect class="c" x="162.74" y="451.48" width="223.46" height="14.38" rx="4.16"/><circle class="e" cx="274.48" cy="366.5" r="14.1"/><rect class="g" x="22.35" y="24.1" width="504.29" height="290.57"/><rect class="f" x="22.35" y="24.1" width="504.29" height="74.78"/><rect class="f" x="22.35" y="305.02" width="504.29" height="9.65"/><rect class="h" x="22.35" y="24.1" width="504.29" height="27.91"/><rect class="i" x="22.35" y="24.1" width="504.29" height="13.79"/><rect class="j" x="24.79" y="26.54" width="6.98" height="7.09"/><rect class="j" x="25.82" y="34.73" width="5.94" height="6.04"/><rect class="j" x="32.98" y="30.14" width="3.44" height="3.5"/><rect class="j" x="32.98" y="34.73" width="4.79" height="4.87"/><rect class="j" x="332.98" y="59.2" width="25.07" height="20.1" rx="1.67"/><rect class="j" x="365.09" y="59.2" width="25.07" height="20.1" rx="1.67"/><rect class="j" x="397.19" y="59.2" width="25.07" height="20.1" rx="1.67"/><rect class="j" x="429.29" y="59.2" width="25.07" height="20.1" rx="1.67"/><rect class="j" x="461.4" y="59.2" width="25.07" height="20.1" rx="1.67"/><rect class="j" x="90.29" y="60.39" width="94.11" height="8.28" rx="1.67"/><rect class="j" x="187.59" y="60.62" width="13.01" height="8.51" rx="1.67"/><rect class="k" x="28.94" y="58.89" width="17.39" height="17.89" rx="1.67"/><rect class="j" x="36.97" y="64.92" width="12.04" height="14.71" rx="1.67"/><rect class="l" x="192.44" y="72.32" width="7.69" height="7.69" rx="1.12"/><rect class="m" x="183.22" y="72.32" width="7.69" height="7.69" rx="1.12"/><rect class="n" x="54.02" y="60.9" width="23.49" height="4.43" rx="0.92"/><rect class="n" x="73.59" y="67.42" width="3.92" height="4.43" rx="0.92"/><rect class="n" x="54.02" y="74.03" width="23.49" height="4.43" rx="0.92"/><rect class="n" x="216.5" y="59.69" width="7.27" height="7.78" rx="1.61"/><rect class="n" x="225.86" y="59.69" width="16.47" height="7.78" rx="1.61"/><rect class="n" x="245.1" y="59.69" width="72.99" height="7.78" rx="1.61"/><rect class="n" x="216.5" y="70.56" width="7.27" height="7.78" rx="1.61"/><rect class="n" x="225.86" y="70.56" width="16.47" height="7.78" rx="1.61"/><rect class="n" x="245.1" y="70.56" width="72.99" height="7.78" rx="1.61"/><rect class="o" x="95.15" y="73.19" width="24.5" height="5.94" rx="1.23"/><rect class="o" x="123.08" y="73.19" width="24.5" height="5.94" rx="1.23"/><rect class="o" x="151.83" y="73.19" width="24.5" height="5.94" rx="1.23"/><rect class="n" x="500.24" y="58.98" width="19.9" height="4.64" rx="0.96"/><rect class="n" x="500.24" y="66.48" width="19.9" height="4.03" rx="0.84"/><rect class="n" x="500.24" y="73.24" width="19.9" height="3.83" rx="0.79"/><rect class="p" x="26.1" y="307.03" width="33.94" height="6.02"/><rect class="p" x="516.82" y="306.52" width="6.04" height="6.42"/><rect class="p" x="490.52" y="306.52" width="6.04" height="6.42"/><rect class="q" x="22.35" y="98.45" width="504.29" height="216.21"/><rect class="j" x="26.48" y="85.18" width="76.2" height="10.19" rx="1.52"/><rect class="j" x="107.29" y="85.18" width="414.81" height="10.19" rx="1.52"/><rect class="j" x="22.35" y="111.99" width="504.29" height="202.68"/><rect class="r" x="22.35" y="142.84" width="504.29" height="2.56"/><rect class="r" x="22.35" y="157.2" width="504.29" height="2.56"/><rect class="r" x="22.35" y="171.56" width="504.29" height="2.56"/><rect class="r" x="22.35" y="185.93" width="504.29" height="2.56"/><rect class="r" x="22.35" y="200.29" width="504.29" height="2.56"/><rect class="r" x="22.35" y="214.65" width="504.29" height="2.56"/><rect class="r" x="22.35" y="229.02" width="504.29" height="2.56"/><rect class="r" x="22.35" y="243.38" width="504.29" height="2.56"/><rect class="r" x="22.35" y="257.74" width="504.29" height="2.56"/><rect class="r" x="22.35" y="272.11" width="504.29" height="2.56"/><rect class="r" x="22.35" y="286.47" width="504.29" height="2.56"/><rect class="r" x="22.35" y="300.83" width="504.29" height="2.56"/><rect class="r" x="39.94" y="98.44" width="2.56" height="216.23"/><rect class="r" x="83.58" y="98.44" width="2.56" height="216.23"/><rect class="r" x="178.54" y="98.44" width="2.56" height="216.23"/><rect class="r" x="226.22" y="98.44" width="2.56" height="216.23"/><rect class="r" x="274.7" y="98.44" width="2.56" height="216.23"/><rect class="r" x="323.18" y="98.44" width="2.56" height="216.23"/><rect class="r" x="372.08" y="98.44" width="2.56" height="216.23"/><rect class="r" x="422.58" y="98.44" width="2.56" height="216.23"/><rect class="r" x="477.13" y="98.44" width="2.56" height="216.23"/><rect class="s" x="228.83" y="98.33" width="46" height="13.93"/><rect class="i" x="42.55" y="111.99" width="484.09" height="22.47"/><rect class="r" x="22.44" y="125.46" width="18.57" height="2.54"/><path class="t" d="M131.7,169.73l-17.57,13.5H131.7Z" transform="translate(-91.72 -57.75)"/><rect class="j" x="85.9" y="154.76" width="140.29" height="88.86"/><rect class="j" x="228.79" y="154.76" width="45.89" height="88.86"/><rect class="u" x="83.62" y="142.76" width="193.43" height="17.14"/><rect class="v" x="88.59" y="148.75" width="67.88" height="6.87"/><rect class="v" x="231.16" y="148.75" width="29.31" height="6.87"/><rect class="w" x="88.59" y="163.32" width="117.6" height="6.87"/><rect class="w" x="88.59" y="176.18" width="90.46" height="6.87"/><rect class="w" x="88.59" y="190.75" width="36.74" height="6.87"/><rect class="w" x="88.59" y="205.6" width="67.88" height="6.87"/><rect class="w" x="249.2" y="163.32" width="21.83" height="6.87"/><rect class="w" x="254.93" y="176.18" width="16.11" height="6.87"/><rect class="w" x="250.06" y="190.75" width="20.98" height="6.87"/><rect class="w" x="241.14" y="205.6" width="29.9" height="6.87"/><rect class="w" x="241.14" y="233.48" width="29.9" height="6.87"/><rect class="w" x="88.81" y="233.48" width="29.9" height="6.87"/><rect class="w" x="122.96" y="233.48" width="2.9" height="6.87"/><rect class="p" x="26.77" y="129.96" width="7.27" height="11.11" rx="1.52"/><rect class="p" x="26.77" y="147.33" width="7.27" height="7.68" rx="1.05"/><rect class="p" x="26.77" y="161.88" width="7.27" height="7.68" rx="1.05"/><rect class="p" x="26.77" y="176.02" width="7.27" height="7.68" rx="1.05"/><rect class="p" x="26.77" y="190.77" width="7.27" height="7.68" rx="1.05"/><rect class="p" x="26.77" y="204.92" width="7.27" height="7.68" rx="1.05"/><rect class="p" x="26.77" y="219.46" width="7.27" height="7.68" rx="1.05"/><rect class="p" x="26.77" y="233.8" width="7.27" height="7.68" rx="1.05"/><rect class="p" x="26.77" y="247.95" width="7.27" height="7.68" rx="1.05"/><rect class="p" x="26.77" y="262.49" width="7.27" height="7.68" rx="1.05"/><rect class="p" x="26.77" y="276.64" width="7.27" height="7.68" rx="1.05"/><rect class="p" x="26.77" y="291.18" width="7.27" height="7.68" rx="1.05"/><rect class="p" x="26.77" y="305.32" width="7.27" height="7.68" rx="1.05"/><rect class="j" x="45.33" y="29.9" width="133.71" height="6.86" rx="1.05"/><rect class="n" x="54.02" y="67.42" width="4.56" height="4.43" rx="0.92"/><rect class="n" x="60.02" y="67.42" width="11.71" height="4.43" rx="0.92"/><rect class="j" x="86.17" y="275.08" width="139.81" height="25.59"/><rect class="x" x="86.05" y="260.49" width="140.06" height="11.57"/><rect class="y" x="88.79" y="263.91" width="50.51" height="5.05"/><rect class="y" x="88.79" y="277.84" width="50.51" height="5.05"/><rect class="y" x="88.79" y="291.59" width="44.65" height="5.05"/><rect class="y" x="189" y="277.84" width="34.14" height="5.05"/><rect class="y" x="189" y="291.38" width="34.14" height="5.05"/><rect class="y" x="315.11" y="300.76" width="187.03" height="2.57"/><rect class="z" x="488.92" y="143.73" width="12.4" height="157.03"/><rect class="aa" x="462.61" y="168.88" width="12.4" height="131.89"/><rect class="ab" x="436.31" y="164.3" width="12.4" height="136.46"/><rect class="ac" x="410.01" y="195.73" width="12.4" height="105.03"/><rect class="ad" x="383.7" y="212.88" width="12.4" height="87.89"/><rect class="v" x="357.4" y="240.87" width="12.4" height="59.89"/><rect class="ae" x="331.09" y="251.16" width="12.4" height="49.6"/><rect class="j" x="165.98" y="117.17" width="238.4" height="6.03"/><rect class="j" x="213.66" y="126.8" width="136.17" height="4.47"/><rect class="x" x="228.68" y="260.49" width="45.91" height="11.57"/><rect class="y" x="254.46" y="277.84" width="17.17" height="5.05"/><rect class="y" x="254.66" y="291.38" width="16.97" height="5.05"/></svg>