<svg xmlns="http://www.w3.org/2000/svg" viewBox="0 0 270.51 302.62"><defs><style>.a{fill:#fff;stroke:#000;stroke-miterlimit:10;stroke-width:0.5px;}.b{fill:#bbbdbf;}.b,.c{fill-opacity:0.56;}.c{fill:#808184;}.d{opacity:0.12;isolation:isolate;}.e{opacity:0.3;}.f,.h{stroke:#c7c7c7;}.f{stroke-width:3.76px;fill-rule:evenodd;}.g{fill:#c7c7c7;}.h{fill:none;stroke-miterlimit:3.2;stroke-width:3.01px;}</style></defs><rect class="a" x="187.32" y="280.53" width="164.34" height="265.91" transform="translate(-253.24 -179.65) rotate(-15)"/><rect class="b" x="191.53" y="351.51" width="129.78" height="4.25" transform="translate(-238.19 -185.07) rotate(-15)"/><rect class="b" x="188.52" y="340.3" width="129.78" height="4.25" transform="translate(-235.39 -186.23) rotate(-15)"/><rect class="b" x="194.53" y="362.7" width="129.78" height="4.25" transform="translate(-240.98 -183.91) rotate(-15)"/><rect class="b" x="197.53" y="373.91" width="129.78" height="4.25" transform="translate(-243.78 -182.76) rotate(-15)"/><rect class="b" x="205.2" y="402.53" width="129.78" height="4.25" transform="translate(-250.93 -179.8) rotate(-15)"/><rect class="b" x="202.2" y="391.33" width="129.78" height="4.25" transform="translate(-248.13 -180.95) rotate(-15)"/><rect class="b" x="208.2" y="413.73" width="129.78" height="4.25" transform="translate(-253.72 -178.64) rotate(-15)"/><rect class="b" x="211.2" y="424.93" width="129.78" height="4.25" transform="matrix(0.97, -0.26, 0.26, 0.97, -256.52, -177.48)"/><rect class="b" x="217.24" y="453.1" width="59.35" height="2.29" transform="matrix(0.97, -0.26, 0.26, 0.97, -264.55, -184.1)"/><rect class="b" x="219.1" y="460.03" width="59.35" height="2.29" transform="translate(-266.28 -183.39) rotate(-15)"/><rect class="b" x="220.96" y="466.96" width="59.35" height="2.29" transform="matrix(0.97, -0.26, 0.26, 0.97, -268.01, -182.67)"/><rect class="b" x="222.82" y="473.89" width="59.35" height="2.29" transform="translate(-269.75 -181.95) rotate(-15)"/><rect class="b" x="224.67" y="480.82" width="59.35" height="2.29" transform="translate(-271.48 -181.24) rotate(-15)"/><rect class="b" x="226.53" y="487.75" width="59.35" height="2.29" transform="matrix(0.97, -0.26, 0.26, 0.97, -273.2, -180.52)"/><rect class="b" x="228.39" y="494.68" width="59.35" height="2.29" transform="translate(-274.94 -179.8) rotate(-15)"/><rect class="b" x="230.24" y="501.61" width="59.35" height="2.29" transform="matrix(0.97, -0.26, 0.26, 0.97, -276.67, -179.09)"/><rect class="b" x="285.28" y="434.87" width="59.35" height="2.29" transform="translate(-257.52 -167.12) rotate(-15)"/><rect class="b" x="287.13" y="441.8" width="59.35" height="2.29" transform="matrix(0.97, -0.26, 0.26, 0.97, -259.25, -166.4)"/><rect class="b" x="288.99" y="448.73" width="59.35" height="2.29" transform="translate(-260.98 -165.68) rotate(-15)"/><rect class="b" x="290.85" y="455.66" width="59.35" height="2.29" transform="matrix(0.97, -0.26, 0.26, 0.97, -262.71, -164.96)"/><rect class="b" x="292.71" y="462.59" width="59.35" height="2.29" transform="translate(-264.44 -164.25) rotate(-15)"/><rect class="b" x="294.56" y="469.52" width="59.35" height="2.29" transform="translate(-266.17 -163.53) rotate(-15)"/><rect class="b" x="296.42" y="476.45" width="59.35" height="2.29" transform="translate(-267.9 -162.82) rotate(-15)"/><rect class="b" x="298.28" y="483.38" width="59.35" height="2.29" transform="translate(-269.63 -162.1) rotate(-15)"/><rect class="c" x="182.53" y="320.98" width="44.03" height="9.46" transform="translate(-232.73 -199.45) rotate(-15)"/><rect class="d" x="101.11" y="21.6" width="164.34" height="265.91"/><rect class="a" x="105.91" y="21.6" width="164.34" height="265.91"/><rect class="c" x="208.95" y="41.25" width="44.03" height="44.03"/><rect class="c" x="123.19" y="41.25" width="44.03" height="9.46"/><rect class="c" x="123.19" y="154.24" width="44.03" height="9.46"/><rect class="b" x="123.19" y="55.32" width="22.58" height="5.31"/><rect class="b" x="123.19" y="86.16" width="69.84" height="4.25"/><rect class="b" x="123.19" y="74.57" width="69.84" height="4.25"/><rect class="b" x="123.19" y="176.7" width="59.35" height="2.29"/><rect class="b" x="123.19" y="183.41" width="59.35" height="2.29"/><rect class="b" x="123.19" y="190.12" width="59.35" height="2.29"/><rect class="b" x="123.19" y="196.83" width="59.35" height="2.29"/><rect class="b" x="193.62" y="176.7" width="59.35" height="2.29"/><rect class="b" x="193.62" y="183.41" width="59.35" height="2.29"/><rect class="b" x="193.62" y="190.11" width="59.35" height="2.29"/><rect class="b" x="193.62" y="196.83" width="59.35" height="2.29"/><rect class="b" x="123.19" y="212.67" width="59.35" height="2.29"/><rect class="b" x="123.19" y="219.38" width="59.35" height="2.29"/><rect class="b" x="123.19" y="226.09" width="59.35" height="2.29"/><rect class="b" x="123.19" y="232.8" width="59.35" height="2.29"/><rect class="b" x="193.62" y="212.67" width="59.35" height="2.29"/><rect class="b" x="193.62" y="219.38" width="59.35" height="2.29"/><rect class="b" x="193.62" y="226.08" width="59.35" height="2.29"/><rect class="b" x="193.62" y="232.8" width="59.35" height="2.29"/><rect class="b" x="123.19" y="248.64" width="59.35" height="2.29"/><rect class="b" x="123.19" y="255.35" width="59.35" height="2.29"/><rect class="b" x="221.42" y="256.98" width="31.55" height="0.66"/><rect class="b" x="183.23" y="275.52" width="9.7" height="2.08"/><rect class="b" x="123.19" y="109.36" width="129.78" height="4.25"/><rect class="b" x="123.19" y="97.76" width="129.78" height="4.25"/><rect class="b" x="123.19" y="120.96" width="129.78" height="4.25"/><rect class="b" x="123.19" y="132.56" width="129.78" height="4.25"/><path d="M380.65,519c.23-.11.27-.13-.35.21l.12-.07.44-.31c.23-.19.45-.39.67-.59a7.42,7.42,0,0,1,.62-.49c.32-.23.65-.44,1-.64a5,5,0,0,1,1.36-.65,3.57,3.57,0,0,1,.46,0h.27l.16.06a2.29,2.29,0,0,1,.63.48c.21.19.44.35.65.53s.35.28.51.42a4.52,4.52,0,0,0,.62.46,1.79,1.79,0,0,0,.45.19,2.17,2.17,0,0,0,.44,0c.2,0,.4,0,.6,0a2.54,2.54,0,0,0,.61-.19c.08,0,.32-.19.24-.13s-.28.26-.27.15.18-.12.28-.18a8.55,8.55,0,0,0,1-.8,3.17,3.17,0,0,1,.71-.42.15.15,0,0,1,.13,0,.37.37,0,0,1,.17.1,5.79,5.79,0,0,1,.51.48l.31.26a4.45,4.45,0,0,0,.87.56,2,2,0,0,0,.64.12h.58a1.27,1.27,0,0,0,.53-.17l.18-.1-.37.19c.3-.22.59-.44.87-.68a5.55,5.55,0,0,0,.42-.42,5,5,0,0,0,.75-1,4.41,4.41,0,0,0,.28-.58,5.13,5.13,0,0,0,.34-1.48,3.26,3.26,0,0,0-.2-1.35,1.06,1.06,0,0,0-.34-.49.55.55,0,0,0-.31,0l-.08,0a3.33,3.33,0,0,1,.46-.24c.05,0-.08.08-.12.12a1.31,1.31,0,0,0-.24.47c0,.08,0,.15-.05.23a3.68,3.68,0,0,0,.21,1.71c0,.09.08.18.12.27a4.71,4.71,0,0,0,.8,1.09c.48.54,1,1.06,1.49,1.57a23.25,23.25,0,0,0,1.67,1.62,1,1,0,0,0,.58.29h.39s.26-.09.2,0c-.82.47-.55.32-.37.18l.13-.09c.2-.15.38-.32.58-.46a1.64,1.64,0,0,1,.94-.41h.35a.94.94,0,0,1,.37,0,4.43,4.43,0,0,1,.46.29c.12.09.25.16.37.26a.46.46,0,0,0,.22.11h0l-.55.39-.05,0a.76.76,0,0,1-.23-.13c-.11-.1-.24-.17-.36-.26a2.13,2.13,0,0,0-.46-.27,1.42,1.42,0,0,0-.36,0h-.34c-.32,0-.62.26.23-.23a6.7,6.7,0,0,0-.6.45,2,2,0,0,1-1.11.6h-.4a1.23,1.23,0,0,1-.58-.34c-.58-.52-1.11-1.09-1.66-1.63s-1-1-1.5-1.56a4.27,4.27,0,0,1-.81-1.12,2.76,2.76,0,0,1-.22-.59,4.24,4.24,0,0,1-.13-1.42,2.23,2.23,0,0,1,0-.23,1.42,1.42,0,0,1,.23-.5.64.64,0,0,1,.1-.13c.22-.15.46-.27.69-.4l.09,0a.54.54,0,0,1,.33.08,1.29,1.29,0,0,1,.36.53c.05.15.07.21.11.36a4.35,4.35,0,0,1,.09,1c0,.07,0,.15,0,.22a5.09,5.09,0,0,1-.31,1.28c-.11.23-.16.37-.28.59a5.71,5.71,0,0,1-1.17,1.47c-.27.24-.56.46-.85.68l-.75.46a1.52,1.52,0,0,1-.74.25h-.59a2.06,2.06,0,0,1-.64-.15,4.9,4.9,0,0,1-.88-.57c-.12-.11-.19-.15-.31-.27a5.57,5.57,0,0,0-.51-.46.25.25,0,0,0-.15-.06c-.05,0-.14.05-.11,0,.68-.42.64-.39.42-.25a10.16,10.16,0,0,1-1,.82,9.46,9.46,0,0,1-1.1.66,2.5,2.5,0,0,1-.88.31c-.2,0-.41,0-.61,0a1.71,1.71,0,0,1-.45,0,2.11,2.11,0,0,1-.46-.21,5.61,5.61,0,0,1-.62-.47c-.17-.14-.35-.27-.51-.42s-.44-.34-.65-.53a2.13,2.13,0,0,0-.62-.46,1.2,1.2,0,0,0-.42,0,1.61,1.61,0,0,0-.44,0,1.83,1.83,0,0,0-.33.11c-.19.07-.71.34.1-.11a10.15,10.15,0,0,0-1,.64,5.82,5.82,0,0,0-.63.48c-.22.2-.44.4-.67.59a7.17,7.17,0,0,1-1.34.84Z" transform="translate(-155.4 -263.49)"/><g class="e"><polygon points="101.98 302.62 96.2 297.13 126.72 264.64 132.5 270.13 101.98 302.62"/><path d="M345.43,468.62l-2.06-2,21.56-23s1.77-1,2.35-.42-.28,2.38-.28,2.38Z" transform="translate(-155.4 -263.49)"/><path class="f" d="M260.38,548.78c-3.1-34.17,38.85-29.69,46-59.48" transform="translate(-155.4 -263.49)"/><path d="M265.1,561.06l-4.46-4.24-4.47-4.24,94.91-101.05,12.62-7.07,2,.47.59,2L360,460Z" transform="translate(-155.4 -263.49)"/></g><rect class="g" x="247.24" y="541.96" width="44.46" height="7.95" transform="translate(-462.51 86.95) rotate(-45)"/><path class="g" d="M347.37,470l-2-2,22.22-22.22s1.8-.91,2.36-.35-.35,2.36-.35,2.36Z" transform="translate(-155.4 -263.49)"/><path class="h" d="M260.05,547.32c-2.13-34.07,39.69-28.42,47.71-57.83" transform="translate(-155.4 -263.49)"/><path d="M264.42,559.67l-4.34-4.34L255.73,551l97.78-97.77,12.82-6.68,2,.54.53,2L362.2,461.9Z" transform="translate(-155.4 -263.49)"/></svg>