<svg xmlns="http://www.w3.org/2000/svg" viewBox="0 0 302 301.9"><defs><style>.a{fill:#1e4c4c;}.b{opacity:0.5;}.c{fill:#f8fbf7;}.d{opacity:0.2;}.e{fill:#1a7c7b;}.f{fill:#fff;}.g{opacity:0.3;}.h{fill:#916d4d;}.i{fill:#2c5353;}.j{fill:#9aadad;}.k{fill:#94736a;}.l{fill:#eff0f0;}.m{fill:#e2e4e4;}.n{fill:#fea511;}.o{fill:#c8cbcb;}</style></defs><path class="a" d="M112.3,363.6c0,1.4,55.4,2.5,123.8,2.5s123.8-1.1,123.8-2.5-55.4-2.5-123.8-2.5S112.3,362.2,112.3,363.6Z" transform="translate(-98.4 -95.2)"/><g class="b"><path class="a" d="M148.7,361.5h10.1v-171H125l1.6,4.6c2.3,6.6,3.5,32,3.5,39.3V335.8C130,349.1,135.3,361.5,148.7,361.5Z" transform="translate(-98.4 -95.2)"/></g><path class="c" d="M354.2,177.2l-3.6-4h-.1l-3.6,4-3.6-4h-.1l-3.6,4-3.6-4h-.1l-3.6,4-3.6-4h-.1l-3.6,4-3.6-4h-.1l-3.6,4-3.6-4H314l-3.6,4-3.6-4h-.1l-3.6,4-3.6-4h-.1l-3.6,4-3.6-4h-.1l-3.6,4-3.6-4h-.1l-3.6,4-3.6-4h-.1l-3.6,4-3.6-4h-.1l-3.6,4-3.6-4h-.1l-3.6,4-3.6-4h-.1l-3.6,4-3.6-4h-.1l-3.6,4-3.6-4H241l-3.6,4-3.6-4h-.1l-3.6,4-3.6-4h-.1l-3.6,4-3.6-4h-.1l-3.6,4-3.6-4h-.1l-3.6,4-3.6-4h-.1l-3.6,4-3.6-4h-.1l-3.6,4-3.6-4h-.1l-3.6,4-3.6-4h-.1l-3.6,4-3.6-4h-.1l-3.6,4-3.6-4H168l-3.6,4-3.6-4h-.1l-3.6,4-3.6-4-.2,18.2V343.2c0,16.6-12.4,18.1-12.4,18.1,8.3,0,13.4.1,13.4.1H339.6a18.1,18.1,0,0,0,18.1-18.1V173.4Z" transform="translate(-98.4 -95.2)"/><g class="d"><path class="a" d="M189.5,345.3a57.88,57.88,0,0,0-2.2-13.6H151.9V382h24a78.42,78.42,0,0,0,8-12.9,13.3,13.3,0,0,0,4.5.8,12.32,12.32,0,0,0,1.1-24.6Zm-1.7,18.9a8.81,8.81,0,0,1-1.7-.2,51.93,51.93,0,0,0,3.2-12.8,6.57,6.57,0,0,1-1.5,13Z" transform="translate(-98.4 -95.2)"/></g><path class="e" d="M223.3,235.9h-6.6l-13.3-22.5h-.1v22.5h-6.6v-33h6.6l13.3,22.5h.1V202.9h6.6Z" transform="translate(-98.4 -95.2)"/><path class="e" d="M249.7,221.4H236.1v9.4h16v5.1H229.5v-33H252V208H236.1v8.3h13.6v5.1Z" transform="translate(-98.4 -95.2)"/><path class="e" d="M282.2,225.5h.1l4.7-22.6h6.5l-7.7,33h-6.1l-6-21.8h-.1l-6,21.8h-6.1l-7.7-33h6.5l4.7,22.6h.1l6.2-22.6h4.9Z" transform="translate(-98.4 -95.2)"/><path class="e" d="M315,227.3a3.87,3.87,0,0,0-1.3-3.1A13.74,13.74,0,0,0,309,222a27.57,27.57,0,0,1-8.9-4,7.74,7.74,0,0,1-3-6.4,7.91,7.91,0,0,1,3.5-6.6,14.37,14.37,0,0,1,8.8-2.6,13.6,13.6,0,0,1,8.9,2.9,8.47,8.47,0,0,1,3.3,7.1v.1H315a4.82,4.82,0,0,0-1.5-3.7,6.17,6.17,0,0,0-4.3-1.4,6.26,6.26,0,0,0-4.1,1.2,3.69,3.69,0,0,0-1.5,3,3.34,3.34,0,0,0,1.6,2.8,20.77,20.77,0,0,0,5.4,2.3,20.73,20.73,0,0,1,8.3,4,8.2,8.2,0,0,1,2.8,6.5,8,8,0,0,1-3.3,6.7,14.78,14.78,0,0,1-8.8,2.4,15.81,15.81,0,0,1-9.4-2.8,8.47,8.47,0,0,1-3.9-7.8v-.1h6.4a5,5,0,0,0,1.8,4.3,8.25,8.25,0,0,0,5,1.4,6.68,6.68,0,0,0,4.1-1.1A3.56,3.56,0,0,0,315,227.3Z" transform="translate(-98.4 -95.2)"/><rect class="e" x="91" y="227.8" width="65.4" height="5.4"/><rect class="e" x="91" y="207" width="65.4" height="5.4"/><rect class="e" x="91" y="186.2" width="65.4" height="5.4"/><rect class="e" x="172.9" y="182" width="58.9" height="56.5"/><polygon class="f" points="185.5 227.8 185.5 224.4 199.1 212.7 205.3 217.5 219.5 206.2 222.3 209.1 224.4 199.1 213.9 200.3 216.4 202.9 205.3 211.8 198.9 207 185.5 218.5 185.5 191.5 183.2 191.5 183.2 229.1 183.3 229.1 183.3 229.3 227.5 229.3 227.5 227.8 185.5 227.8"/><rect class="e" x="94" y="153.9" width="141" height="2.9"/><path class="f" d="M335.8,125.7a11.15,11.15,0,0,1-.2,1.8c-.1.6-.2,1.2-.4,2s-.4,1.6-.7,2.6a35.67,35.67,0,0,1-2.3,6.1c-1,2.2-2.4,4.3-3.6,6.6s-2.4,4.5-3.5,6.6-2.2,4-3.2,5.7c-1.9,3.3-3.1,5.5-3.1,5.5l-.4-.2s.8-2.4,2.2-6c.7-1.8,1.4-3.9,2.3-6.1s1.8-4.6,2.7-7,1.7-4.8,2.6-7a37.35,37.35,0,0,1,3.2-5.7c.5-.8,1-1.5,1.5-2.2s.9-1.2,1.3-1.6a16.43,16.43,0,0,1,1.2-1.4Z" transform="translate(-98.4 -95.2)"/><path class="f" d="M238,95.2a13,13,0,0,1,.6,2c.2.6.3,1.4.5,2.3a25,25,0,0,1,.5,2.9,33.86,33.86,0,0,1,.4,3.5c.1,1.2.2,2.5.2,3.9s-.1,2.7-.1,4.2-.1,2.9-.2,4.3c-.1,2.9-.2,5.8-.3,8.5s-.2,5.2-.3,7.4c-.2,4.3-.4,7.2-.4,7.2h-.4s-.3-2.9-.7-7.2c-.2-2.2-.4-4.7-.6-7.4s-.4-5.6-.6-8.4c-.1-1.4-.2-2.9-.4-4.3s-.3-2.8-.3-4.2,0-2.7.1-3.9.2-2.4.3-3.5.3-2.1.4-3,.3-1.6.4-2.3c.3-1.3.5-2,.5-2Z" transform="translate(-98.4 -95.2)"/><path class="f" d="M400.4,186.6a23.55,23.55,0,0,1-3.3,2.6,28.65,28.65,0,0,1-3.6,2.1c-1.4.6-2.9,1.1-4.4,1.8-3,1.2-6,2.5-8.3,3.3s-3.8,1.4-3.8,1.4l-.1-.2s1.4-.8,3.5-2.1,5-2.8,7.8-4.4a43.59,43.59,0,0,1,4.2-2.3,27.91,27.91,0,0,1,3.9-1.5,25.22,25.22,0,0,1,4.1-.9Z" transform="translate(-98.4 -95.2)"/><path class="f" d="M98.6,176.7a20.29,20.29,0,0,1,3.7,2,31.93,31.93,0,0,1,3.3,2.5c1.1,1,2.2,2.3,3.4,3.4,2.3,2.3,4.6,4.6,6.3,6.4s2.8,2.9,2.8,2.9l-.2.2s-1.3-1-3.3-2.4-4.5-3.5-7.1-5.5c-1.3-1-2.6-1.9-3.8-2.9a39.62,39.62,0,0,1-2.9-3,21.93,21.93,0,0,1-2.4-3.4Z" transform="translate(-98.4 -95.2)"/><path class="f" d="M154.8,120.6a12.12,12.12,0,0,1,1.3,1.3c.4.4.9.9,1.4,1.5s1.1,1.3,1.6,2a33.63,33.63,0,0,1,3.5,5.4c1.1,2.1,2,4.4,3.1,6.7s2.2,4.5,3.2,6.7,1.9,4.1,2.7,5.9c1.6,3.4,2.5,5.8,2.5,5.8l-.4.2s-1.4-2.1-3.5-5.2c-1-1.6-2.3-3.4-3.5-5.4s-2.6-4.1-3.9-6.2-2.8-4.2-4-6.2a41.11,41.11,0,0,1-2.6-5.9c-.3-.9-.6-1.7-.8-2.5a19.45,19.45,0,0,1-.5-2,16.43,16.43,0,0,1-.4-1.8Z" transform="translate(-98.4 -95.2)"/><g class="g"><path d="M253.4,395.6c0,.8,11.3,1.5,25.2,1.5s25.2-.7,25.2-1.5-11.3-1.5-25.2-1.5S253.4,394.8,253.4,395.6Z" transform="translate(-98.4 -95.2)"/></g><g class="g"><path d="M330.4,395.6c0,.8,11.3,1.5,25.2,1.5s14.7-.7,14.7-1.5-.7-1.5-14.7-1.5S330.4,394.8,330.4,395.6Z" transform="translate(-98.4 -95.2)"/></g><polygon class="h" points="155.7 266.9 280.5 265.8 280.5 261.1 155.7 262.1 155.7 266.9"/><path class="h" d="M268.3,360.6s-12.1,6.6-12,11.2c.2,6.2,3,4.1,3,4.1s11-11.1,14.9-13.9c.8-.6-2.6-1.4-2.6-1.4Z" transform="translate(-98.4 -95.2)"/><path class="h" d="M365.8,359.8s12.2,6.4,12.1,11c-.1,6.2-2.9,4.1-2.9,4.1s-11.1-10.9-15.2-13.7c-.8-.6,2.6-1.4,2.6-1.4Z" transform="translate(-98.4 -95.2)"/><path class="i" d="M387.9,350.8l.1,7.7c-6.5,2.1-6.7,16.6-6.7,16.6s-2.9,20.1-26.6,20.3c-27.5.2-31.6-25.4-32.6-29.7a5.17,5.17,0,0,0-10.1.1c-1,4.3-4.6,30-32.1,30.2-22.8.2-25.5-20-25.5-20s-2-14.4-8.5-16.4l-.1-7.7s6.2-3.1,24.3-3.2,28.5,2.4,28.5,2.4,13.3,2.6,18.3,2.6,18.3-3,18.3-3,10.4-2.7,28.5-2.9c17.9.1,24.2,3,24.2,3Zm-97.3,2.1s-8.8-2-21.9.3-12.4,11.2-11.2,16.9,2.5,23.1,24.5,22.2c8.2-.6,21.2-6.2,25.2-23.2,3.1-13.8-16.6-16.2-16.6-16.2ZM327.5,369c4.2,16.9,17.3,22.3,25.5,22.8,22,.5,23.1-16.9,24.2-22.6s1.7-14.7-11.5-16.7-21.9,0-21.9,0-19.7,2.7-16.3,16.5Z" transform="translate(-98.4 -95.2)"/><path class="j" d="M302,356.9l-42.3.4a9.71,9.71,0,0,0-2.5,4.8l8.7-.1c1.4-.9,2.4-1.4,2.4-1.4h3.3s3.4.8,2.7,1.4l32.1-.3a12.72,12.72,0,0,0-4.4-4.8Z" transform="translate(-98.4 -95.2)"/><path class="j" d="M271.6,360.5h-3.3s-1,.5-2.4,1.4c-2.7,1.6-6.8,4.5-8.6,7.2.1.3.1.6.2.9.3,1.4.6,3.6,1.2,6a2.49,2.49,0,0,0,.7-.3s11-11.1,14.9-13.9h0c.8-.5-2.7-1.3-2.7-1.3Z" transform="translate(-98.4 -95.2)"/><path class="k" d="M280.6,352.1a71,71,0,0,0-12,1.1c-9.8,1.7-11.8,7.1-11.8,12.1a17.33,17.33,0,0,1,.3-3.2,10.14,10.14,0,0,1,2.5-4.8c1.8-1.8,4.6-3.3,9-4.1a71,71,0,0,1,12-1.1,43.14,43.14,0,0,1,9.9.8,29.91,29.91,0,0,1,11.4,4.1,12.43,12.43,0,0,1,4.4,4.7,9.26,9.26,0,0,1,1.1,4.4c-.1-11.2-16.9-13.2-16.9-13.2a42.2,42.2,0,0,0-9.9-.8Z" transform="translate(-98.4 -95.2)"/><path class="l" d="M359.8,361.2l-31.7.3a10.64,10.64,0,0,0-1,4.5,10.79,10.79,0,0,0,.4,3c4.2,16.9,17.3,22.3,25.5,22.8h1.2c15.5-.1,20-9.4,21.8-16.5h-.1a2.26,2.26,0,0,1-1-.3s-11-11-15.1-13.8Zm17.5-.1-9.1.1c2.8,1.7,7.4,4.7,9.1,7.6a31.38,31.38,0,0,0,.4-4.5,11.24,11.24,0,0,0-.4-3.2Zm-23.6-9.6h0a56,56,0,0,0-9.9.9h0s-6.5.9-11.3,4.3l42.3-.4c-1.8-1.8-4.7-3.3-9-3.9h-.2a67.49,67.49,0,0,0-11.9-.9Z" transform="translate(-98.4 -95.2)"/><path class="j" d="M374.7,356.3l-42.3.4a12.72,12.72,0,0,0-4.4,4.8l31.7-.3c-.8-.6,2.6-1.4,2.6-1.4h3.3s1,.5,2.4,1.4l9.1-.1a8.17,8.17,0,0,0-2.4-4.8Z" transform="translate(-98.4 -95.2)"/><path class="j" d="M365.8,359.8h-3.3s-3.4.8-2.6,1.4h0c4,2.8,15.2,13.7,15.2,13.7a2.26,2.26,0,0,0,1,.3h.1a58.32,58.32,0,0,0,1.1-6.1.6.6,0,0,1,.1-.4c-1.7-2.8-6.2-5.9-9.1-7.6-1.5-.8-2.5-1.3-2.5-1.3Z" transform="translate(-98.4 -95.2)"/><path class="k" d="M354.3,391.8Zm-1.2,0h0Zm12.6-39.4h0c4.4.7,7.2,2.1,9,3.9a9.61,9.61,0,0,1,2.6,4.7,11.24,11.24,0,0,1,.4,3.2c0-5-2.2-10.3-12-11.8Zm-21.9,0h0s-16.8,2.4-16.7,13.5a10.64,10.64,0,0,1,1-4.5,13.5,13.5,0,0,1,4.4-4.8,30.82,30.82,0,0,1,11.3-4.2Zm9.9-.9a76.58,76.58,0,0,1,11.8.9,65.8,65.8,0,0,0-11.8-.9Zm0,0Z" transform="translate(-98.4 -95.2)"/><path class="m" d="M331.2,374.7l28.7-13.5,16.2,14s-3.5,15.6-20,16.3S334.4,381.4,331.2,374.7Z" transform="translate(-98.4 -95.2)"/><path class="n" d="M385.7,352.3c0,.5-.8.9-1.8.9s-1.8-.4-1.8-.9.8-.9,1.8-.9S385.7,351.8,385.7,352.3Z" transform="translate(-98.4 -95.2)"/><path class="n" d="M252.7,354c0,.5-.8.9-1.8.9s-1.8-.4-1.8-.9.8-.9,1.8-.9S252.7,353.5,252.7,354Z" transform="translate(-98.4 -95.2)"/><path class="o" d="M290.6,352.9a51.65,51.65,0,0,0-9.9-.8,71,71,0,0,0-12,1.1c-4.3.8-7.2,2.3-9,4.1l42.3-.4A30.82,30.82,0,0,0,290.6,352.9Z" transform="translate(-98.4 -95.2)"/><path class="o" d="M265.9,362l-8.7.1a16.55,16.55,0,0,0-.3,3.2,25.81,25.81,0,0,0,.4,4C259.1,366.5,263.3,363.6,265.9,362Z" transform="translate(-98.4 -95.2)"/><path class="l" d="M261.4,382.9c3,5.1,8.6,9.6,19.3,9.5h1.2a27.54,27.54,0,0,0,18.4-9.5Z" transform="translate(-98.4 -95.2)"/><path class="l" d="M307.1,369.1a11.28,11.28,0,0,0,.4-3,8.69,8.69,0,0,0-1.1-4.4l-32.1.3h0c-3.9,2.8-14.9,13.9-14.9,13.9a2.49,2.49,0,0,1-.7.3,28.5,28.5,0,0,0,2.7,6.7h39A31.29,31.29,0,0,0,307.1,369.1Z" transform="translate(-98.4 -95.2)"/><g class="g"><path d="M113.1,393.5c0,.9,18.4,1.7,41.2,1.7s41.2-.8,41.2-1.7-18.4-1.7-41.2-1.7S113.1,392.6,113.1,393.5Z" transform="translate(-98.4 -95.2)"/></g><path class="f" d="M142.7,336.7a27.79,27.79,0,0,1-.1-7.1,25.34,25.34,0,0,0,.1-5.5H111.3a7.13,7.13,0,0,1-7.1-7.1v-2.3a7.13,7.13,0,0,1,7.1-7.1h31.9a5.91,5.91,0,0,0,5.9-5.9v-1.2a5.91,5.91,0,0,0-5.9-5.9H127.8a7.13,7.13,0,0,1-7.1-7.1,6.7,6.7,0,0,1,6.7-6.7,4.87,4.87,0,0,0,4.8-4.8v-.4h1.2v.4a5.91,5.91,0,0,1-5.9,5.9,5.59,5.59,0,0,0-5.6,5.6,5.91,5.91,0,0,0,5.9,5.9h15.4a7.13,7.13,0,0,1,7.1,7.1v1.2a7.13,7.13,0,0,1-7.1,7.1H111.3a5.93,5.93,0,0,0-5.9,6v2.3a5.91,5.91,0,0,0,5.9,5.9h32.3l.1.4a23.72,23.72,0,0,1,0,6.3c-.4,4.5,0,6.7.1,6.8Z" transform="translate(-98.4 -95.2)"/><path class="f" d="M175.2,355.9a57.88,57.88,0,0,0-2.2-13.6H137.6v50.3h24a78.42,78.42,0,0,0,8-12.9,13.3,13.3,0,0,0,4.5.8,12.32,12.32,0,0,0,1.1-24.6Zm-1.8,18.9a8.81,8.81,0,0,1-1.7-.2,51.93,51.93,0,0,0,3.2-12.8,6.57,6.57,0,0,1-1.5,13Z" transform="translate(-98.4 -95.2)"/><path class="f" d="M100.9,342.3c-4.7,42.1,16.4,50.4,16.4,50.4s9.3,0,20.3-.1V342.3Z" transform="translate(-98.4 -95.2)"/><path class="f" d="M99.3,345.2h75.6a.27.27,0,0,0,.3-.3v-3.4a.27.27,0,0,0-.3-.3H99.3a.27.27,0,0,0-.3.3v3.4C98.9,345,99.1,345.2,99.3,345.2Z" transform="translate(-98.4 -95.2)"/><path class="f" d="M113.7,392.8H162a.22.22,0,0,0,.2-.2v-2.1a.22.22,0,0,0-.2-.2H113.7a.22.22,0,0,0-.2.2v2.1A.22.22,0,0,0,113.7,392.8Z" transform="translate(-98.4 -95.2)"/></svg>