<svg xmlns="http://www.w3.org/2000/svg" viewBox="0 0 309.47 205.22"><defs><style>.a{fill:#1b7d7b;}.a,.b{stroke:#1b7d7b;stroke-miterlimit:10;stroke-width:3px;}.b{fill:#fff;}</style></defs><path class="a" d="M311.77,249c0-48.6-46.12-88-103-88s-103,39.4-103,88c0,41.56,33.72,76.39,79.07,85.61v25.51L226.62,336l-.44-.26C274.77,328.67,311.77,292.53,311.77,249Z" transform="translate(-96.27 -159.5)"/><path class="a" d="M404.23,249c0-43.63-41.4-79-92.46-79a106.08,106.08,0,0,0-34.29,5.61c25.17,17.23,41.29,43.7,41.29,73.39s-16.12,56.16-41.29,73.39A106,106,0,0,0,310.31,328l-.05,0,29.61,17.09V324.28C377.19,314.12,404.23,284.26,404.23,249Z" transform="translate(-96.27 -159.5)"/><path class="b" d="M303.77,251c0-48.6-46.12-88-103-88s-103,39.4-103,88c0,41.56,33.72,76.39,79.07,85.61v25.51L218.62,338l-.44-.26C266.77,330.67,303.77,294.53,303.77,251Z" transform="translate(-96.27 -159.5)"/><path class="b" d="M396.23,251c0-43.63-41.4-79-92.46-79a106.08,106.08,0,0,0-34.29,5.61c25.17,17.23,41.29,43.7,41.29,73.39s-16.12,56.16-41.29,73.39A106,106,0,0,0,302.31,330l-.05,0,29.61,17.09V326.28C369.19,316.12,396.23,286.26,396.23,251Z" transform="translate(-96.27 -159.5)"/><circle class="a" cx="57.75" cy="121.25" r="10.75"/><path class="b" d="M161.84,279.69a1,1,0,0,1-1-.74,7.13,7.13,0,0,0-4.75-5,1,1,0,1,1,.59-1.91,9.16,9.16,0,0,1,6.09,6.37,1,1,0,0,1-.71,1.22Z" transform="translate(-96.27 -159.5)"/><circle class="a" cx="104.17" cy="121.25" r="10.75"/><path class="b" d="M208.25,279.69a1,1,0,0,1-1-.74,7.15,7.15,0,0,0-4.75-5,1,1,0,1,1,.59-1.91,9.18,9.18,0,0,1,6.09,6.37,1,1,0,0,1-.71,1.22A1.15,1.15,0,0,1,208.25,279.69Z" transform="translate(-96.27 -159.5)"/><circle class="a" cx="150.58" cy="121.25" r="10.75"/><path class="b" d="M254.67,279.69a1,1,0,0,1-1-.74,7.11,7.11,0,0,0-4.75-5,1,1,0,0,1,.6-1.91,9.18,9.18,0,0,1,6.09,6.37,1,1,0,0,1-.72,1.22A1.07,1.07,0,0,1,254.67,279.69Z" transform="translate(-96.27 -159.5)"/></svg>