<svg xmlns="http://www.w3.org/2000/svg" viewBox="0 0 1259.03 1190.91"><defs><style>.a{fill:#fff;}.b{fill:#1a7c7b;fill-rule:evenodd;}</style></defs><ellipse class="a" cx="651.26" cy="587.02" rx="441.78" ry="552"/><path class="b" d="M921.26,19.9C1260,98.49,1476.05,422.28,1402.17,740.68s-410.4,514-749.15,435.39S98.24,773.7,172.12,455.3s410.4-514,749.14-435.4ZM771,601.58A92,92,0,0,1,819.14,630a105.32,105.32,0,0,0-42.67-31.18c-52.53-21.05-112.37,1.86-133.2,51-.65,1.54-1.25,3.09-1.82,4.65C593.9,623.56,573,564.59,594.76,513.2l75.61-178.41,218.56,74.64c4.4,1.49,9.81-2.32,12-8.5s.39-12.45-4-13.95L679.69,312.8l5.68-13.41L904,374.05c4.4,1.5,9.81-2.31,12-8.49s.39-12.45-4-13.95L694.69,277.39l8.14-19.2,217.72,74.34c4.41,1.51,9.82-2.31,12-8.49s.38-12.45-4-14l-216.4-73.89,7.76-18.3,219.5,75c4.4,1.5,9.82-2.32,12-8.49s.39-12.46-4-14L729.23,195.9l8.63-20.35c63.28-149.3,396.22-27.6,328.7,131.69L923.46,644.89c-15.15,35.75-47.62,59.94-84.88,67.78a90.81,90.81,0,0,0,1.63-35.46,78.47,78.47,0,0,1-1.62,25.73c-8.77,37.83-43.89,63.32-83.31,63.67l-66.76,287.76c-4.09,17.64-19.92,29.18-35.17,25.64l-38.4-8.9c-15.25-3.54-24.38-20.87-20.29-38.52l74.73-322.11a79.46,79.46,0,0,1-3.79-47.67C676,618,723.31,590.53,771,601.58Z" transform="translate(-157.63 -2.53)"/></svg>