<svg xmlns="http://www.w3.org/2000/svg" viewBox="0 0 1551.71 1297.39"><defs><style>.a{fill:#a7cfe8;}.b{fill:#9db6c9;}.c{fill:#305d8a;}.d{fill:#fff;}.e{opacity:0.2;}.f{fill:#afddb5;}.g{opacity:0.38;}.h{fill:#e4c6aa;}.i{fill:#aa9e80;}.j{fill:#efefef;}.k{opacity:0.41;}.l{opacity:0.33;}.m{fill:none;}.n{fill:#eae8e1;}</style></defs><path class="a" d="M1593.7,1504.5H1453.83a72.08,72.08,0,1,1,0-144.15h48.08a72.08,72.08,0,1,0,0-144.16H1213.43a72.08,72.08,0,1,1,0-144.15h485.18a72.08,72.08,0,1,0,0-144.16H1353.3a72.08,72.08,0,1,1,0-144.15h131.13a72.08,72.08,0,1,0,0-144.15H1196a72.08,72.08,0,1,1,0-144.16h43.71a72.08,72.08,0,1,0,0-144.15H802.56a72.08,72.08,0,1,0,0,144.15h26.22a72.08,72.08,0,1,1,0,144.16H780.7a72.08,72.08,0,1,0,0,144.15H772a72.08,72.08,0,1,1,0,144.15H295.52a72.08,72.08,0,1,0,0,144.16H417.9a72.08,72.08,0,1,1,0,144.15H400.42a72.08,72.08,0,1,0,0,144.16H728.24a72.08,72.08,0,1,1,0,144.15H562.14a72.08,72.08,0,1,0,0,144.15h1031.5a72.08,72.08,0,1,0,0-144.15Z" transform="translate(-223.4 -351.27)"/><polygon class="b" points="215.35 574.92 88.12 729.13 100.13 738.53 226.99 585.52 215.35 574.92"/><path class="c" d="M323.52,1093.8a4.07,4.07,0,0,1-2.46-.84l-12-9.35a4,4,0,0,1-.63-5.71L435.66,923.67a4,4,0,0,1,5.79-.41l11.63,10.6a4,4,0,0,1,.39,5.52l-126.86,153a4,4,0,0,1-3.09,1.44Zm-6.3-14,5.7,4.43,122-147-5.7-5.19L317.23,1079.83Z" transform="translate(-223.4 -351.27)"/><polygon class="b" points="90.87 782.53 166.2 929.03 182.22 929.03 103.64 775.53 90.87 782.53"/><path class="c" d="M405.62,1284.3h-16a4,4,0,0,1-3.56-2.17l-75.33-146.49a4,4,0,0,1,1.63-5.35l12.77-7a4,4,0,0,1,5.5,1.69l78.58,153.5a4,4,0,0,1-3.57,5.83Zm-13.57-8h7l-73.72-144-5.74,3.15,72.44,140.86Z" transform="translate(-223.4 -351.27)"/><path class="b" d="M440.17,807.52a22,22,0,1,1-31.15,0A22,22,0,0,1,440.17,807.52Z" transform="translate(-223.4 -351.27)"/><path class="c" d="M424.59,849.12A26,26,0,1,1,443,841.5,25.9,25.9,0,0,1,424.59,849.12Zm0-44a18,18,0,1,0,12.74,5.27A17.9,17.9,0,0,0,424.59,805.08Z" transform="translate(-223.4 -351.27)"/><path class="d" d="M562.38,906.16a38.7,38.7,0,1,1-54.73,0A38.71,38.71,0,0,1,562.38,906.16Z" transform="translate(-223.4 -351.27)"/><path class="c" d="M535,976.22a42.71,42.71,0,1,1,30.2-12.51A42.42,42.42,0,0,1,535,976.22Zm0-77.4A34.7,34.7,0,1,0,559.55,909,34.46,34.46,0,0,0,535,898.82Z" transform="translate(-223.4 -351.27)"/><rect class="b" x="390.22" y="814.71" width="80.09" height="28.03" transform="translate(-683.37 195.7) rotate(-45)"/><path class="c" d="M411.85,871a4,4,0,0,1-2.83-1.17L389.2,850a4,4,0,0,1,0-5.66l56.63-56.63a4,4,0,0,1,5.66,0l19.82,19.82a4,4,0,0,1,0,5.66l-56.63,56.63a4,4,0,0,1-2.83,1.17Zm-14.16-23.82,14.16,14.15,51-51L448.66,796.2Z" transform="translate(-223.4 -351.27)"/><polygon class="b" points="375.33 544.03 273.39 645.96 168.63 518.54 247.91 439.26 375.33 544.03"/><path class="c" d="M496.79,1000h-.19c-1.13,0-2.18,0-2.9-.84L388.94,872.05a3.8,3.8,0,0,1,.26-5.22l79.28-79.21a4,4,0,0,1,5.37-.22L601.27,892.18a4,4,0,0,1,.29,5.94L499.63,999.44c-.75.76-1.77.56-2.83.56ZM397.43,870.08l99.65,121.2,95.69-95.69-121.2-99.66-74.14,74.15Z" transform="translate(-223.4 -351.27)"/><g class="e"><polygon class="b" points="321.53 592.16 369.2 544.5 248.18 444.67 211.1 481.73 321.53 592.16"/></g><g class="e"><rect class="b" x="420.73" y="807.77" width="36.04" height="8.01" transform="translate(-668.9 196.74) rotate(-45)"/></g><g class="e"><path class="b" d="M427.9,805.64s-11.57-3.14-19.59,8.93c0,0,6.14-1.14,9.21,1.45Z" transform="translate(-223.4 -351.27)"/></g><g class="e"><polyline class="b" points="307.01 617.53 313.04 617.65 344.18 586.5 347.01 583.67 346.77 578.25 307.37 617.65"/></g><path class="b" d="M342.42,1105.3A28.47,28.47,0,1,1,314,1076.83,28.46,28.46,0,0,1,342.42,1105.3Z" transform="translate(-223.4 -351.27)"/><path class="c" d="M314,1137.8a32.47,32.47,0,1,1,32.47-32.46A32.5,32.5,0,0,1,314,1137.8Zm0-56.93a24.46,24.46,0,1,0,24.46,24.47A24.49,24.49,0,0,0,314,1080.87Z" transform="translate(-223.4 -351.27)"/><g class="e"><path class="b" d="M313.52,1080.9v48.92c12,0,24.46-11,24.46-24.46s-12.45-24.46-24.46-24.46Z" transform="translate(-223.4 -351.27)"/></g><path class="b" d="M327,1105.3A13.09,13.09,0,1,1,314,1092.21,13.08,13.08,0,0,1,327,1105.3Z" transform="translate(-223.4 -351.27)"/><path class="c" d="M314,1122.4A17.09,17.09,0,1,1,331,1105.32,17.11,17.11,0,0,1,314,1122.4Zm0-26.17a9.08,9.08,0,1,0,9.08,9.09A9.1,9.1,0,0,0,314,1096.23Z" transform="translate(-223.4 -351.27)"/><path class="b" d="M484.19,1364.4a78.82,78.82,0,1,0-154.62,0Z" transform="translate(-223.4 -351.27)"/><path class="c" d="M484.19,1368.4H329.57a4,4,0,0,1-3.93-3.23,82.83,82.83,0,1,1,162.48,0,4,4,0,0,1-3.93,3.23Zm-151.26-8H480.82a74.82,74.82,0,1,0-147.89,0Z" transform="translate(-223.4 -351.27)"/><g class="e"><path class="b" d="M406.88,1270.3a78.44,78.44,0,0,0-36.78,9.13,78.36,78.36,0,0,1,91.57,77.7c0,2.45-.14,4.87-.36,7.27h22.88a78.75,78.75,0,0,0-77.31-94.1Z" transform="translate(-223.4 -351.27)"/></g><g class="e"><polygon class="b" points="217.59 584 102.35 723.83 105.81 725.63 220.09 587.34 217.59 584"/></g><g class="e"><polygon class="b" points="103.47 783.83 100.3 785.23 168.04 917.03 171.71 917.03 103.47 783.83"/></g><path class="f" d="M1584.7,942.83c-7.09,14-22.73,20.35-34.94,14.17s-16.36-22.54-9.27-36.55,22.73-20.35,34.94-14.17,16.36,22.54,9.27,36.55Z" transform="translate(-223.4 -351.27)"/><path class="c" d="M1559.7,963.36a25.87,25.87,0,0,1-11.81-2.8A27.07,27.07,0,0,1,1534,942.64a34.48,34.48,0,0,1,2.9-24c5.76-11.38,17-18.73,28.51-18.73a26,26,0,0,1,11.81,2.79c14.16,7.17,19.11,26,11,41.93-5.76,11.38-17,18.73-28.51,18.73Zm5.66-55.45c-8.57,0-16.95,5.63-21.36,14.34a26.45,26.45,0,0,0-2.29,18.42,19.2,19.2,0,0,0,9.79,12.75,18.06,18.06,0,0,0,8.2,1.93c8.57,0,17-5.63,21.36-14.33,6.08-12,2.71-26-7.51-31.17a18,18,0,0,0-8.19-1.94Z" transform="translate(-223.4 -351.27)"/><g class="g"><path class="b" d="M1575.4,906.28c-.5-.25-1-.45-1.52-.66a29.81,29.81,0,0,1-1.22,25.19c-6.79,13.43-21.44,19.79-33.41,14.84A22.6,22.6,0,0,0,1549.74,957c12.21,6.18,27.85-.17,34.93-14.17s2.94-30.37-9.27-36.55Z" transform="translate(-223.4 -351.27)"/></g><path class="f" d="M1562.8,954.83c16.21,30.89,7.63,67.33-19.18,81.4s-61.67.42-77.88-30.47-7.63-67.33,19.18-81.4S1546.59,923.94,1562.8,954.83Z" transform="translate(-223.4 -351.27)"/><path class="c" d="M1521,1045.8c-23.51,0-46.55-15-58.71-38.15-8.3-15.8-10.74-33.48-6.9-49.79,3.89-16.52,13.75-29.67,27.76-37a52.32,52.32,0,0,1,24.57-6c23.5,0,46.55,15,58.72,38.15,8.28,15.8,10.74,33.48,6.89,49.79-3.89,16.52-13.75,29.67-27.75,37A52.39,52.39,0,0,1,1521,1045.8Zm-13.28-122.95a44.41,44.41,0,0,0-20.85,5.08c-11.92,6.26-20.33,17.54-23.69,31.77-3.39,14.43-1.2,30.14,6.2,44.23,10.79,20.57,31,33.86,51.62,33.86a44.41,44.41,0,0,0,20.85-5.08c11.92-6.25,20.33-17.53,23.68-31.76,3.41-14.44,1.21-30.15-6.19-44.23-10.79-20.57-31.06-33.87-51.62-33.87Z" transform="translate(-223.4 -351.27)"/><g class="g"><path class="b" d="M1562.8,954.83c-16.21-30.89-51.08-44.54-77.88-30.47-1,.53-2,1.15-2.91,1.75,22.75,2,44.15,19.53,52.45,45.56,8.72,27.39.19,55.52-19.21,69.73a49,49,0,0,0,28.37-5.17c26.81-14.07,35.39-50.51,19.18-81.4Z" transform="translate(-223.4 -351.27)"/></g><ellipse class="f" cx="1468.89" cy="1115.15" rx="23.03" ry="34.04" transform="translate(-279.63 1800.8) rotate(-71.42)"/><path class="c" d="M1476.5,1143.5a51.43,51.43,0,0,1-16.38-2.76c-20.22-6.8-32.27-23.38-27.44-37.75,3.37-10,14.21-16.26,28.29-16.26a51.45,51.45,0,0,1,16.38,2.77c20.22,6.8,32.27,23.37,27.44,37.74C1501.42,1137.27,1490.58,1143.5,1476.5,1143.5ZM1461,1094.74c-10.37,0-18.5,4.24-20.7,10.81-3.29,9.77,7,22.41,22.4,27.6a43.56,43.56,0,0,0,13.83,2.34c10.37,0,18.49-4.24,20.7-10.8,3.29-9.78-7-22.41-22.4-27.6A43.3,43.3,0,0,0,1461,1094.74Z" transform="translate(-223.4 -351.27)"/><g class="g"><path class="b" d="M1476.1,1093.3c-17.82-6-35.55-1.07-39.6,11a16.26,16.26,0,0,0-.81,5c7.64-3.19,18-3.43,28.4.07,15.42,5.18,25.83,16.84,25.73,27.7,5.44-2.28,9.52-6,11.2-11,4.06-12-7.1-26.68-24.92-32.67Z" transform="translate(-223.4 -351.27)"/></g><path class="f" d="M1684.6,1015c8.15,12.36-.06,32.16-18.33,44.21s-39.71,11.8-47.86-.56.06-32.16,18.33-44.21S1676.44,1002.64,1684.6,1015Z" transform="translate(-223.4 -351.27)"/><path class="c" d="M1639,1072.1c-10.64,0-19.13-4-23.91-11.24-9.35-14.19-.62-36.51,19.47-49.76,9.33-6.15,19.8-9.54,29.5-9.54,10.63,0,19.12,4,23.91,11.24,9.35,14.19.61,36.51-19.48,49.76-9.32,6.15-19.8,9.54-29.49,9.54Zm25.06-62.53c-8.14,0-17.06,2.92-25.09,8.22-16.13,10.63-24,28.34-17.19,38.66,3.25,4.93,9.36,7.64,17.22,7.64,8.15,0,17-2.92,25.09-8.22,16.12-10.64,24-28.34,17.19-38.66C1678,1012.28,1671.91,1009.57,1664.06,1009.57Z" transform="translate(-223.4 -351.27)"/><g class="g"><path class="b" d="M1684.6,1015a19.34,19.34,0,0,0-7.47-6.53c4.36,13.93-8.48,30.73-29,37.72-12,4.09-23.94,3.9-32.82.33a20,20,0,0,0,3.08,12.13c8.15,12.36,29.58,12.62,47.86.56S1692.75,1027.36,1684.6,1015Z" transform="translate(-223.4 -351.27)"/></g><ellipse class="f" cx="1339.5" cy="753.83" rx="88.09" ry="107.11"/><path class="c" d="M1562.9,1216.2c-50.79,0-92.1-49.85-92.1-111.12S1512.11,994,1562.9,994s92.1,49.85,92.1,111.12S1613.69,1216.2,1562.9,1216.2Zm0-214.23c-46.37,0-84.09,46.26-84.09,103.11s37.72,103.11,84.09,103.11,84.09-46.26,84.09-103.11S1609.27,1002,1562.9,1002Z" transform="translate(-223.4 -351.27)"/><g class="g"><path class="b" d="M1562.9,998a73.4,73.4,0,0,0-18,2.25c40,10.11,70.07,53.21,70.07,104.86s-30.06,94.75-70.07,104.86a73.4,73.4,0,0,0,18,2.25c48.65,0,88.09-48,88.09-107.11S1611.55,998,1562.9,998Z" transform="translate(-223.4 -351.27)"/></g><path class="h" d="M1667,1341.7a22.7,22.7,0,0,1-22.7,22.7H1485.49a22.7,22.7,0,0,1-22.71-22.7l-20-146.81a22.7,22.7,0,0,1,22.71-22.7h198.85a22.7,22.7,0,0,1,22.7,22.7l-20,146.81Z" transform="translate(-223.4 -351.27)"/><path class="c" d="M1644.3,1368.4H1485.49a26.74,26.74,0,0,1-26.71-26.42l-20-146.55a3.27,3.27,0,0,1,0-.54,26.74,26.74,0,0,1,26.71-26.71h198.85a26.74,26.74,0,0,1,26.71,26.71,3.27,3.27,0,0,1,0,.54L1671,1342a26.75,26.75,0,0,1-26.71,26.42Zm-197.53-173.77,20,146.52a4.89,4.89,0,0,1,0,.54,18.72,18.72,0,0,0,18.7,18.7H1644.3a18.72,18.72,0,0,0,18.7-18.7,3.27,3.27,0,0,1,0-.54l20-146.52a18.72,18.72,0,0,0-18.7-18.44H1465.47a18.73,18.73,0,0,0-18.7,18.44Z" transform="translate(-223.4 -351.27)"/><g class="g"><path class="i" d="M1664.3,1172.2h-20a22.7,22.7,0,0,1,22.7,22.7l-20,146.81a22.7,22.7,0,0,1-22.7,22.7h20a22.7,22.7,0,0,0,22.7-22.7l20-146.81A22.7,22.7,0,0,0,1664.3,1172.2Z" transform="translate(-223.4 -351.27)"/></g><path class="d" d="M1398.7,1309.7a22.7,22.7,0,0,1-22.7,22.7H640.57a22.7,22.7,0,0,1-22.71-22.7V814.52a22.7,22.7,0,0,1,22.71-22.7H1376a22.7,22.7,0,0,1,22.7,22.7Z" transform="translate(-223.4 -351.27)"/><path class="c" d="M1376,1336.4H640.57a26.74,26.74,0,0,1-26.71-26.7V814.52a26.74,26.74,0,0,1,26.71-26.71H1376a26.74,26.74,0,0,1,26.71,26.71V1309.7a26.74,26.74,0,0,1-26.71,26.7ZM640.57,795.82a18.72,18.72,0,0,0-18.7,18.7V1309.7a18.72,18.72,0,0,0,18.7,18.69H1376a18.72,18.72,0,0,0,18.7-18.69V814.52a18.72,18.72,0,0,0-18.7-18.7Z" transform="translate(-223.4 -351.27)"/><g class="e"><path class="b" d="M1372,791.78h-7.33a18,18,0,0,1,18,18v490.52h12V814.48a22.7,22.7,0,0,0-22.7-22.7Z" transform="translate(-223.4 -351.27)"/></g><g class="e"><path class="b" d="M1350.6,1189.5a22.7,22.7,0,0,1-22.7,22.7H688.58a22.7,22.7,0,0,1-22.71-22.7v-343a22.7,22.7,0,0,1,22.71-22.7H1327.9a22.7,22.7,0,0,1,22.7,22.7Z" transform="translate(-223.4 -351.27)"/></g><path class="j" d="M1350.6,1301.6a22.7,22.7,0,0,1-22.7,22.7H688.58a22.7,22.7,0,0,1-22.71-22.7V858.48a22.7,22.7,0,0,1,22.71-22.7H1327.9a22.7,22.7,0,0,1,22.7,22.7Z" transform="translate(-223.4 -351.27)"/><path class="c" d="M1327.9,1328.4H688.58a26.74,26.74,0,0,1-26.71-26.7V858.58a26.74,26.74,0,0,1,26.71-26.71H1327.9a26.74,26.74,0,0,1,26.71,26.71V1301.7a26.74,26.74,0,0,1-26.71,26.7ZM688.58,839.88a18.72,18.72,0,0,0-18.7,18.7V1301.7a18.72,18.72,0,0,0,18.7,18.69H1327.9a18.72,18.72,0,0,0,18.7-18.69V858.58a18.72,18.72,0,0,0-18.7-18.7Z" transform="translate(-223.4 -351.27)"/><g class="k"><path class="d" d="M1326.9,839.83H894.63l452,316.34V862.53c0-17-8.59-22.7-19.71-22.7Z" transform="translate(-223.4 -351.27)"/></g><path class="d" d="M1533.6,1304.3H486.9c-12.54,0-18.29,10.69-14.69,22.7,1.19,4,3.64,13.3,4.67,17.35,3.1,12.14,13.5,20,26,20h1014.7c12.54,0,22.93-7.87,26-20,1-4,3.48-13.34,4.68-17.35,3.59-12-2.16-22.7-14.69-22.7Z" transform="translate(-223.4 -351.27)"/><path class="c" d="M1517.6,1368.4H502.9a30.39,30.39,0,0,1-29.92-23c-1-3.89-3.44-13.23-4.63-17.19-2.3-7.66-1.33-15.12,2.64-20.45,3.55-4.77,9.2-7.4,15.89-7.4h1046.7c6.7,0,12.34,2.63,15.89,7.4,4,5.33,4.94,12.79,2.64,20.45-1.18,4-3.64,13.3-4.63,17.19a30.37,30.37,0,0,1-29.91,23ZM486.9,1308.34c-4.16,0-7.43,1.44-9.47,4.17-2.44,3.28-2.95,8.16-1.39,13.37,1.23,4.13,3.69,13.44,4.72,17.51,2.64,10.33,11.34,17,22.16,17h1014.7c10.82,0,19.52-6.67,22.16-17,1-4.07,3.48-13.38,4.71-17.5,1.57-5.22,1.06-10.1-1.38-13.38-2-2.73-5.31-4.18-9.47-4.18H486.9Z" transform="translate(-223.4 -351.27)"/><g class="e"><path class="b" d="M1076.9,1304.3H898.18v13.34a22.7,22.7,0,0,0,22.7,22.7h174.83a22.7,22.7,0,0,0,22.71-22.7V1304.3Z" transform="translate(-223.4 -351.27)"/></g><path class="b" d="M1076.9,1304.3H902.36a22.7,22.7,0,0,0,22.53,20h166.82a22.7,22.7,0,0,0,22.53-20Z" transform="translate(-223.4 -351.27)"/><path class="c" d="M1091.7,1328.4H924.88a26.69,26.69,0,0,1-26.51-23.56,4,4,0,0,1,4-4.47h211.88a4,4,0,0,1,4,4.47,26.69,26.69,0,0,1-26.5,23.56Zm-184.28-20a18.69,18.69,0,0,0,17.46,12H1091.7a18.69,18.69,0,0,0,17.45-12Z" transform="translate(-223.4 -351.27)"/><g class="e"><path class="b" d="M480.37,1348.4a26.36,26.36,0,0,0,22.56,12h1014.7a26.36,26.36,0,0,0,22.56-12H480.37Z" transform="translate(-223.4 -351.27)"/></g><g class="l"><path class="b" d="M1327.9,835.82H688.58a22.7,22.7,0,0,0-22.7,22.7v12a22.7,22.7,0,0,1,22.7-22.7H1327.9a22.7,22.7,0,0,1,22.7,22.7v-12A22.7,22.7,0,0,0,1327.9,835.82Z" transform="translate(-223.4 -351.27)"/></g><g class="e"><rect class="b" x="394.44" y="941.03" width="764.82" height="8.01"/></g><circle class="c" cx="786.9" cy="461.03" r="4.51"/><g class="e"><path class="b" d="M1366.6,792a16.52,16.52,0,0,1,2-.2h-2Z" transform="translate(-223.4 -351.27)"/></g><path class="c" d="M1771.1,1368.4h-20a4,4,0,1,1,0-8h20a4,4,0,0,1,0,8Zm-52.06,0h-32a4,4,0,0,1,0-8h32a4,4,0,1,1,0,8Z" transform="translate(-223.4 -351.27)"/><path class="c" d="M1687,1368.4H377.6a4,4,0,0,1,0-8H1687a4,4,0,0,1,0,8Z" transform="translate(-223.4 -351.27)"/><path class="c" d="M373.62,1368.4a4,4,0,0,1,0-8h0a4,4,0,0,1,0,8Zm-32.07,0h-32a4,4,0,0,1,0-8h32a4,4,0,0,1,0,8Zm-64.07,0h-32a4,4,0,0,1,0-8h32a4,4,0,0,1,0,8Z" transform="translate(-223.4 -351.27)"/><line class="m" x1="1351.6" y1="584.37" x2="1373.5" y2="594.67"/><path class="c" d="M1596.9,950a4,4,0,0,1-1.7-.38l-21.85-10.3a4,4,0,1,1,3.42-7.24l21.84,10.3a4,4,0,0,1-1.71,7.62Z" transform="translate(-223.4 -351.27)"/><line class="m" x1="1339.2" y1="552.84" x2="1338" y2="538.61"/><path class="c" d="M1562.6,908.12a4,4,0,0,1-4-3.67l-1.19-14.23a4,4,0,0,1,3.65-4.32,3.92,3.92,0,0,1,4.32,3.65l1.19,14.23a4,4,0,0,1-3.65,4.32A2,2,0,0,1,1562.6,908.12Z" transform="translate(-223.4 -351.27)"/><line class="m" x1="1326" y1="567.55" x2="1307.4" y2="556.85"/><path class="c" d="M1549.4,922.82a4,4,0,0,1-2-.54l-18.55-10.69a4,4,0,0,1,4-6.94l18.55,10.7a4,4,0,0,1-2,7.47Z" transform="translate(-223.4 -351.27)"/><line class="m" x1="1364.7" y1="567.55" x2="1373.5" y2="566.2"/><path class="c" d="M1588.1,922.82a4,4,0,0,1-.6-8l8.76-1.35a4,4,0,0,1,1.21,7.92l-8.76,1.34A4.18,4.18,0,0,1,1588.1,922.82Z" transform="translate(-223.4 -351.27)"/><line class="m" x1="1373.5" y1="722.83" x2="1387" y2="707.33"/><path class="c" d="M1596.9,1078.1a4,4,0,0,1-3-6.64l13.55-15.46a4,4,0,1,1,6,5.28l-13.55,15.45A4,4,0,0,1,1596.9,1078.1Z" transform="translate(-223.4 -351.27)"/><line class="m" x1="1441.6" y1="690.53" x2="1463.6" y2="707.33"/><path class="c" d="M1687,1062.6a4,4,0,0,1-2.43-.82l-22-16.86a4,4,0,1,1,4.86-6.36l22,16.86a4,4,0,0,1-2.44,7.18Z" transform="translate(-223.4 -351.27)"/><line class="m" x1="1435.3" y1="712.13" x2="1437.6" y2="718.83"/><path class="c" d="M1661,1074.1a4,4,0,0,1-3.79-2.7l-2.28-6.66a4,4,0,1,1,7.57-2.6l2.29,6.65a4,4,0,0,1-2.49,5.09A3.94,3.94,0,0,1,1661,1074.1Z" transform="translate(-223.4 -351.27)"/><line class="m" x1="1415.8" y1="670.23" x2="1410.2" y2="650.03"/><path class="c" d="M1639.2,1025.5a4,4,0,0,1-3.86-2.93l-5.59-20.14a4,4,0,1,1,7.72-2.14l5.59,20.13a4,4,0,0,1-3.86,5.08Z" transform="translate(-223.4 -351.27)"/><line class="m" x1="1439.6" y1="652.73" x2="1443.6" y2="644.73"/><path class="c" d="M1663,1008a4.12,4.12,0,0,1-1.79-.42,4,4,0,0,1-1.79-5.38l4-8a4,4,0,1,1,7.16,3.58l-4,8A4,4,0,0,1,1663,1008Z" transform="translate(-223.4 -351.27)"/><line class="m" x1="1455.6" y1="670.23" x2="1477.6" y2="664.73"/><path class="c" d="M1679,1025.5a4,4,0,0,1-1-7.89l22-5.45a4,4,0,1,1,1.93,7.77l-22,5.45a4.09,4.09,0,0,1-1,.12Z" transform="translate(-223.4 -351.27)"/><line class="m" x1="1463.6" y1="680.93" x2="1470.9" y2="681.53"/><path class="c" d="M1694.3,1036.8a2.11,2.11,0,0,1-.35,0l-7.34-.62a4,4,0,0,1-3.64-4.34,3.93,3.93,0,0,1,4.33-3.64l7.34.63a4,4,0,0,1-.34,8Z" transform="translate(-223.4 -351.27)"/><line class="m" x1="1275.4" y1="576.65" x2="1279.4" y2="556.63"/><path class="c" d="M1498.8,931.93a3.59,3.59,0,0,1-.79-.08,4,4,0,0,1-3.14-4.71l4-20a4,4,0,0,1,7.86,1.57l-4,20a4,4,0,0,1-3.92,3.22Z" transform="translate(-223.4 -351.27)"/><line class="m" x1="1258.4" y1="574.92" x2="1248.7" y2="567.55"/><path class="c" d="M1481.8,930.2a4,4,0,0,1-2.42-.82l-9.71-7.37a4,4,0,0,1,4.84-6.38l9.71,7.38a4,4,0,0,1-2.42,7.19Z" transform="translate(-223.4 -351.27)"/><line class="m" x1="1258.4" y1="658.73" x2="1234.2" y2="664.73"/><path class="c" d="M1457.6,1020a4,4,0,0,1-1-7.89l24.21-6a4,4,0,0,1,1.93,7.78l-24.21,6A4.09,4.09,0,0,1,1457.6,1020Z" transform="translate(-223.4 -351.27)"/><line class="m" x1="1275.4" y1="629.02" x2="1258.4" y2="623.37"/><path class="c" d="M1498.8,984.3a4.25,4.25,0,0,1-1.26-.2l-17-5.66a4,4,0,1,1,2.53-7.6l17,5.65a4,4,0,0,1-1.26,7.81Z" transform="translate(-223.4 -351.27)"/><line class="m" x1="1290.9" y1="601.34" x2="1294.1" y2="584.37"/><path class="c" d="M1514.3,956.62a3.61,3.61,0,0,1-.73-.07,4,4,0,0,1-3.21-4.67l3.15-17a4,4,0,0,1,7.88,1.47l-3.16,17A4,4,0,0,1,1514.3,956.62Z" transform="translate(-223.4 -351.27)"/><line class="m" x1="1322.8" y1="604.01" x2="1335.4" y2="584.37"/><path class="c" d="M1546.2,959.29a4,4,0,0,1-3.36-6.18l12.68-19.64a4,4,0,0,1,6.73,4.34l-12.68,19.65A4,4,0,0,1,1546.2,959.29Z" transform="translate(-223.4 -351.27)"/><line class="m" x1="1332.8" y1="623.37" x2="1355.5" y2="626.19"/><path class="c" d="M1578.9,981.47l-.5,0-22.69-2.83a4,4,0,1,1,1-8l22.69,2.83a4,4,0,0,1-.49,8Z" transform="translate(-223.4 -351.27)"/><line class="m" x1="1236.8" y1="640.41" x2="1215.3" y2="634.71"/><path class="c" d="M1460.2,995.69a4,4,0,0,1-1-.13l-21.47-5.7a4,4,0,1,1,2.06-7.74l21.46,5.7a4,4,0,0,1-1,7.87Z" transform="translate(-223.4 -351.27)"/><line class="m" x1="1226" y1="613.36" x2="1234.2" y2="612.09"/><path class="c" d="M1449.4,968.63a4,4,0,0,1-.61-8l8.14-1.27a4,4,0,0,1,1.23,7.92l-8.14,1.26a4.44,4.44,0,0,1-.62,0Z" transform="translate(-223.4 -351.27)"/><line class="m" x1="1303.4" y1="637.56" x2="1307.4" y2="626.19"/><path class="c" d="M1526.8,992.84a3.88,3.88,0,0,1-1.33-.23,4,4,0,0,1-2.45-5.1l4-11.37a4,4,0,1,1,7.55,2.66l-4,11.37a4,4,0,0,1-3.78,2.67Z" transform="translate(-223.4 -351.27)"/><line class="m" x1="1251.4" y1="594.67" x2="1240.8" y2="584.37"/><path class="c" d="M1474.8,950a4,4,0,0,1-2.8-1.14l-10.57-10.3a4,4,0,1,1,5.6-5.73l10.57,10.3a4,4,0,0,1-2.8,6.87Z" transform="translate(-223.4 -351.27)"/><line class="m" x1="1277.4" y1="650.03" x2="1284.1" y2="652.73"/><path class="c" d="M1507.5,1008a4.1,4.1,0,0,1-1.49-.28l-6.67-2.68a4,4,0,1,1,3-7.43l6.67,2.67a4,4,0,0,1-1.49,7.72Z" transform="translate(-223.4 -351.27)"/><line class="m" x1="1240.8" y1="748.13" x2="1226" y2="728.83"/><path class="c" d="M1464.2,1103.4a4,4,0,0,1-3.19-1.58l-14.74-19.35a4,4,0,0,1,6.38-4.85l14.73,19.35a4,4,0,0,1-.76,5.61,3.91,3.91,0,0,1-2.42.82Z" transform="translate(-223.4 -351.27)"/><line class="m" x1="1219.3" y1="744.73" x2="1212.3" y2="738.53"/><path class="c" d="M1442.7,1100a4,4,0,0,1-2.66-1l-7.06-6.27a4,4,0,1,1,5.32-6l7.06,6.27a4,4,0,0,1-2.66,7Z" transform="translate(-223.4 -351.27)"/><line class="m" x1="1226" y1="763.83" x2="1208" y2="770.83"/><path class="c" d="M1431.4,1126.1a4,4,0,0,1-1.45-7.74l18.08-7a4,4,0,0,1,2.89,7.47l-18.07,7A4.13,4.13,0,0,1,1431.4,1126.1Z" transform="translate(-223.4 -351.27)"/><line class="m" x1="1226" y1="779.73" x2="1219.3" y2="788.23"/><path class="c" d="M1442.7,1143.5a3.93,3.93,0,0,1-2.48-.87,4,4,0,0,1-.65-5.62l6.73-8.48a4,4,0,1,1,6.27,5l-6.73,8.48a4,4,0,0,1-3.14,1.52Z" transform="translate(-223.4 -351.27)"/><line class="m" x1="1240.8" y1="772.83" x2="1236.8" y2="792.23"/><path class="c" d="M1460.2,1147.5a4.45,4.45,0,0,1-.81-.08,4,4,0,0,1-3.12-4.73l4-19.36a4,4,0,1,1,7.84,1.62l-4,19.35a4,4,0,0,1-3.92,3.2Z" transform="translate(-223.4 -351.27)"/><line class="m" x1="1376.2" y1="670.23" x2="1384.2" y2="646.73"/><path class="c" d="M1599.6,1025.5a4.15,4.15,0,0,1-1.29-.21,4,4,0,0,1-2.5-5.09l8-23.47a4,4,0,0,1,7.58,2.59l-8,23.47a4,4,0,0,1-3.79,2.71Z" transform="translate(-223.4 -351.27)"/><line class="m" x1="1361.3" y1="650.03" x2="1362.6" y2="640.41"/><path class="c" d="M1584.7,1005.3l-.51,0a4,4,0,0,1-3.47-4.48l1.23-9.65a4,4,0,1,1,7.94,1l-1.22,9.65A4,4,0,0,1,1584.7,1005.3Z" transform="translate(-223.4 -351.27)"/><line class="m" x1="1290.9" y1="681.53" x2="1270.7" y2="667.43"/><path class="c" d="M1514.3,1036.8a4,4,0,0,1-2.28-.71L1491.81,1022a4,4,0,1,1,4.58-6.57l20.2,14a4,4,0,0,1-2.29,7.29Z" transform="translate(-223.4 -351.27)"/><line class="m" x1="1323.4" y1="648.73" x2="1327.4" y2="636.72"/><path class="c" d="M1546.8,1004a4.07,4.07,0,0,1-1.27-.21,4,4,0,0,1-2.53-5.06l4-12a4,4,0,0,1,7.59,2.53l-4,12A4,4,0,0,1,1546.8,1004Z" transform="translate(-223.4 -351.27)"/><line class="m" x1="1316.7" y1="667.43" x2="1322.8" y2="674.53"/><path class="c" d="M1546.2,1029.8a4,4,0,0,1-3-1.38l-6.07-7a4,4,0,1,1,6.06-5.24l6.07,7a4,4,0,0,1-3,6.62Z" transform="translate(-223.4 -351.27)"/><line class="m" x1="1340.6" y1="664.73" x2="1338" y2="685.53"/><path class="c" d="M1561.4,1040.8l-.5,0a4,4,0,0,1-3.48-4.47l2.61-20.78a4,4,0,1,1,8,1l-2.61,20.78A4,4,0,0,1,1561.4,1040.8Z" transform="translate(-223.4 -351.27)"/><line class="m" x1="1401.5" y1="693.43" x2="1417.5" y2="685.53"/><path class="c" d="M1624.9,1048.7a4,4,0,0,1-1.78-7.59l16-7.92a4,4,0,0,1,3.55,7.18l-16,7.91a3.9,3.9,0,0,1-1.77.42Z" transform="translate(-223.4 -351.27)"/><line class="m" x1="1411.5" y1="704.83" x2="1423.5" y2="704.83"/><path class="c" d="M1646.9,1060.1h-12a4,4,0,1,1,0-8h12a4,4,0,0,1,0,8Z" transform="translate(-223.4 -351.27)"/><line class="m" x1="1245.4" y1="722.83" x2="1261.4" y2="735.53"/><path class="c" d="M1484.8,1090.8a4,4,0,0,1-2.48-.86l-16-12.68a4,4,0,0,1,5-6.28l16,12.68a4,4,0,0,1-2.49,7.14Z" transform="translate(-223.4 -351.27)"/><line class="m" x1="1258.4" y1="711.83" x2="1252.7" y2="710.83"/><path class="c" d="M1481.8,1067.1a4.37,4.37,0,0,1-.72-.06l-5.71-1a4,4,0,0,1,1.44-7.88l5.7,1a4,4,0,0,1-.71,7.95Z" transform="translate(-223.4 -351.27)"/><line class="m" x1="1277.4" y1="698.93" x2="1292.5" y2="710.83"/><path class="c" d="M1515.9,1066.1a4,4,0,0,1-2.47-.86l-15.11-11.87a4,4,0,1,1,5-6.29l15.11,11.87a4,4,0,0,1-2.48,7.15Z" transform="translate(-223.4 -351.27)"/><line class="m" x1="1307.4" y1="702.13" x2="1313.6" y2="712.13"/><path class="c" d="M1537,1067.4a4,4,0,0,1-3.41-1.9l-6.19-10a4,4,0,0,1,6.82-4.21l6.19,10a4,4,0,0,1-3.41,6.11Z" transform="translate(-223.4 -351.27)"/><line class="m" x1="1380.3" y1="760.83" x2="1391.9" y2="748.13"/><path class="c" d="M1603.7,1116.1a4,4,0,0,1-3-6.71l11.63-12.68a4,4,0,1,1,5.9,5.41l-11.63,12.68a4,4,0,0,1-3,1.3Z" transform="translate(-223.4 -351.27)"/><line class="m" x1="1401.5" y1="767.33" x2="1409.5" y2="764.83"/><path class="c" d="M1624.9,1122.6a4,4,0,0,1-1.19-7.83l8-2.5a4,4,0,0,1,2.38,7.64l-8,2.5a3.75,3.75,0,0,1-1.19.19Z" transform="translate(-223.4 -351.27)"/><line class="m" x1="1413" y1="741.63" x2="1436.4" y2="738.53"/><path class="c" d="M1636.4,1096.9a4,4,0,0,1-.53-8l23.43-3.14a4,4,0,1,1,1.06,7.94l-23.42,3.13a3.27,3.27,0,0,1-.54,0Z" transform="translate(-223.4 -351.27)"/><line class="m" x1="1428.1" y1="760.83" x2="1433.6" y2="758.53"/><path class="c" d="M1651.5,1116.1a4,4,0,0,1-1.59-7.68l5.42-2.34a4,4,0,1,1,3.17,7.35l-5.41,2.34a3.91,3.91,0,0,1-1.59.33Z" transform="translate(-223.4 -351.27)"/><line class="m" x1="1266.9" y1="792.23" x2="1251.4" y2="804.93"/><path class="c" d="M1474.8,1160.2a4,4,0,0,1-2.54-7.11l15.53-12.68a4,4,0,1,1,5.07,6.2l-15.53,12.69a4,4,0,0,1-2.53.9Z" transform="translate(-223.4 -351.27)"/><line class="m" x1="1275.4" y1="772.83" x2="1290.9" y2="775.53"/><path class="c" d="M1514.3,1130.8a4,4,0,0,1-.68-.06l-15.53-2.67a4,4,0,1,1,1.35-7.89l15.53,2.67a4,4,0,0,1-.67,8Z" transform="translate(-223.4 -351.27)"/><line class="m" x1="1284.9" y1="802.23" x2="1300.1" y2="792.23"/><path class="c" d="M1508.3,1157.5a4,4,0,0,1-2.21-7.34l15.13-10a4,4,0,0,1,4.42,6.68l-15.13,10a4,4,0,0,1-2.21.67Z" transform="translate(-223.4 -351.27)"/><line class="m" x1="1329.1" y1="782.53" x2="1322.8" y2="798.53"/><path class="c" d="M1546.2,1153.8a4,4,0,0,1-3.72-5.48l6.34-16a4,4,0,0,1,7.44,2.94l-6.34,16A4,4,0,0,1,1546.2,1153.8Z" transform="translate(-223.4 -351.27)"/><line class="m" x1="1344.1" y1="797.23" x2="1347.6" y2="804.93"/><path class="c" d="M1571,1160.2a4,4,0,0,1-3.65-2.33l-3.52-7.68a4,4,0,0,1,7.29-3.34l3.52,7.68a4,4,0,0,1-2,5.31A4.15,4.15,0,0,1,1571,1160.2Z" transform="translate(-223.4 -351.27)"/><line class="m" x1="1305.4" y1="744.73" x2="1284.9" y2="738.53"/><path class="c" d="M1528.8,1100a4,4,0,0,1-1.17-.18l-20.48-6.26a4,4,0,0,1,2.35-7.66l20.47,6.27a4,4,0,0,1-1.17,7.83Z" transform="translate(-223.4 -351.27)"/><line class="m" x1="1355.5" y1="766.13" x2="1358.8" y2="758.53"/><path class="c" d="M1578.9,1121.4a4,4,0,0,1-3.66-5.62l3.33-7.59a4,4,0,0,1,7.34,3.22l-3.34,7.6a4,4,0,0,1-3.67,2.39Z" transform="translate(-223.4 -351.27)"/><line class="m" x1="1380.2" y1="790.53" x2="1392.8" y2="793.23"/><path class="c" d="M1616.2,1148.5a4.76,4.76,0,0,1-.83-.08l-12.68-2.68a4,4,0,1,1,1.65-7.83l12.68,2.67a4,4,0,0,1-.82,7.92Z" transform="translate(-223.4 -351.27)"/><line class="m" x1="1223.3" y1="868.93" x2="1459.6" y2="868.93"/><path class="c" d="M1683,1224.2H1446.75a4,4,0,1,1,0-8H1683a4,4,0,0,1,0,8Z" transform="translate(-223.4 -351.27)"/><path class="n" d="M628.52,1281.3a55.06,55.06,0,0,0-54.73-55v-7.35a22.7,22.7,0,0,0-22.7-22.7H460.35a22.7,22.7,0,0,0-22.7,22.7v122.78a22.71,22.71,0,0,0,22.7,22.7h90.74a22.7,22.7,0,0,0,22.7-22.7v-5.33a55.06,55.06,0,0,0,54.73-55Zm-54.73,31v-62.06a31,31,0,0,1,0,62.06Z" transform="translate(-223.4 -351.27)"/><path class="c" d="M551.09,1368.4H460.35a26.73,26.73,0,0,1-26.7-26.7V1218.92a26.74,26.74,0,0,1,26.7-26.71h90.74a26.74,26.74,0,0,1,26.71,26.71v3.5a59.06,59.06,0,0,1,0,117.8v1.47a26.74,26.74,0,0,1-26.71,26.71Zm-90.74-168.18a18.72,18.72,0,0,0-18.7,18.7V1341.7a18.71,18.71,0,0,0,18.7,18.69h90.74a18.72,18.72,0,0,0,18.7-18.69v-5.33a4,4,0,0,1,4-4,51.05,51.05,0,0,0,0-102.1,4,4,0,0,1-4-4v-7.35a18.72,18.72,0,0,0-18.7-18.7Zm113.44,116.13a4,4,0,0,1-4-4v-62.06a4,4,0,0,1,1.19-2.84,3.82,3.82,0,0,1,2.86-1.16,35,35,0,0,1,0,70.06Zm4-61.7V1308a27,27,0,0,0,0-53.34Z" transform="translate(-223.4 -351.27)"/><g class="e"><path class="b" d="M573.8,1226.3V1219a22.7,22.7,0,0,0-22.7-22.7H521.74v168.18H551.1a22.7,22.7,0,0,0,22.7-22.7v-5.33a55.05,55.05,0,0,0,0-110.1Zm0,86.08v-62.05a31,31,0,0,1,0,62.05Z" transform="translate(-223.4 -351.27)"/></g><line class="m" x1="238.28" y1="860.93" x2="326.37" y2="860.93"/><path class="c" d="M549.77,1216.2H461.68a4,4,0,1,1,0-8h88.09a4,4,0,1,1,0,8Z" transform="translate(-223.4 -351.27)"/></svg>