<svg id="Camada_1" data-name="Camada 1" xmlns="http://www.w3.org/2000/svg" xmlns:xlink="http://www.w3.org/1999/xlink" viewBox="0 0 666.55 166.79"><defs><style>.cls-1{fill:none;}.cls-2{clip-path:url(#clip-path);}.cls-3{fill:#1d3e8d;}</style><clipPath id="clip-path" transform="translate(-39.48 -153.3)"><rect class="cls-1" width="745.51" height="473.39"/></clipPath></defs><g class="cls-2"><path class="cls-3" d="M399.22,219.94a10,10,0,0,1,8.45,4.22l-2.6,1.51a7.34,7.34,0,0,0-5.85-2.88c-4.45,0-7.78,3.39-7.78,8.19s3.33,8.22,7.78,8.22a8.29,8.29,0,0,0,5.41-2.11v-3.84h-6.85v-2.81h10.05v7.84a11.38,11.38,0,0,1-8.61,3.77,11.06,11.06,0,1,1,0-22.11" transform="translate(-39.48 -153.3)"/><path class="cls-3" d="M411.86,226.18h2.88v2.37a6.55,6.55,0,0,1,5.06-2.72v2.91a4.82,4.82,0,0,0-1-.1,5.45,5.45,0,0,0-4.06,2.24v10.75h-2.88Z" transform="translate(-39.48 -153.3)"/><path class="cls-3" d="M433.11,239.52a7.66,7.66,0,0,1-5.51,2.5c-3.29,0-4.92-1.67-4.92-4.93V226.18h2.88v9.95c0,2.56,1.28,3.33,3.26,3.33a5.61,5.61,0,0,0,4.29-2.18v-11.1H436v15.45h-2.88Z" transform="translate(-39.48 -153.3)"/><path class="cls-3" d="M440.56,247.52V226.18h2.88v2.21a6.29,6.29,0,0,1,5.06-2.59c4,0,6.88,3,6.88,8.09S452.53,242,448.5,242a6.17,6.17,0,0,1-5.06-2.63v8.13Zm7.17-19.16a5.29,5.29,0,0,0-4.29,2.27v6.56a5.4,5.4,0,0,0,4.29,2.27c2.88,0,4.64-2.34,4.64-5.57s-1.76-5.53-4.64-5.53" transform="translate(-39.48 -153.3)"/><path class="cls-3" d="M458.07,233.89c0-4.45,3-8.09,7.8-8.09s7.81,3.64,7.81,8.09-3,8.13-7.81,8.13-7.8-3.65-7.8-8.13m12.6,0c0-2.91-1.69-5.53-4.8-5.53s-4.8,2.62-4.8,5.53,1.73,5.57,4.8,5.57,4.8-2.63,4.8-5.57" transform="translate(-39.48 -153.3)"/><path class="cls-3" d="M496.59,239.43a6.39,6.39,0,0,1-5,2.59c-4,0-6.91-3-6.91-8.1s2.88-8.12,6.91-8.12a6.29,6.29,0,0,1,5,2.62v-8.13h2.88v21.35h-2.88Zm0-8.8a5.32,5.32,0,0,0-4.28-2.27c-2.88,0-4.68,2.33-4.68,5.56s1.8,5.54,4.68,5.54a5.29,5.29,0,0,0,4.28-2.24Z" transform="translate(-39.48 -153.3)"/><path class="cls-3" d="M510.87,225.8c4.64,0,7.52,3.61,7.52,8.35v.7H506.16a5.08,5.08,0,0,0,5.25,4.8,6.61,6.61,0,0,0,4.58-1.82l1.34,1.88a8.68,8.68,0,0,1-6.21,2.31,8.11,8.11,0,0,1-.25-16.22m-4.74,7h9.44a4.57,4.57,0,0,0-4.7-4.61,4.74,4.74,0,0,0-4.74,4.61" transform="translate(-39.48 -153.3)"/><polygon class="cls-3" points="490.84 67 505.18 67 505.18 69.81 494.04 69.81 494.04 76.05 504.95 76.05 504.95 78.87 494.04 78.87 494.04 85.52 505.18 85.52 505.18 88.34 490.84 88.34 490.84 67"/><path class="cls-3" d="M548.63,237.51a7.47,7.47,0,0,0,5.18,2.2c2.18,0,3.33-.89,3.33-2.2,0-1.54-1.76-2-3.74-2.5-2.63-.61-5.7-1.31-5.7-4.64,0-2.46,2.11-4.57,5.89-4.57a8.29,8.29,0,0,1,5.88,2.2l-1.28,2a6,6,0,0,0-4.57-1.89c-2,0-3.17.77-3.17,2s1.66,1.79,3.58,2.24c2.69.6,5.89,1.34,5.89,4.89,0,2.66-2.17,4.74-6.24,4.74a8.79,8.79,0,0,1-6.43-2.4Z" transform="translate(-39.48 -153.3)"/><path class="cls-3" d="M564.15,238.21v-9.5h-2.56v-2.53h2.56V222H567v4.22h3.13v2.53H567v8.86c0,1.09.51,1.89,1.5,1.89a2.23,2.23,0,0,0,1.57-.61l.73,2.18a4.1,4.1,0,0,1-3,1c-2.44,0-3.68-1.38-3.68-3.81" transform="translate(-39.48 -153.3)"/><path class="cls-3" d="M583.79,239.52a7.62,7.62,0,0,1-5.5,2.5c-3.3,0-4.93-1.67-4.93-4.93V226.18h2.88v9.95c0,2.56,1.28,3.33,3.27,3.33a5.58,5.58,0,0,0,4.28-2.18v-11.1h2.88v15.45h-2.88Z" transform="translate(-39.48 -153.3)"/><path class="cls-3" d="M602.26,239.43A6.41,6.41,0,0,1,597.2,242c-4,0-6.91-3-6.91-8.1s2.88-8.12,6.91-8.12a6.3,6.3,0,0,1,5.06,2.62v-8.13h2.88v21.35h-2.88Zm0-8.8a5.34,5.34,0,0,0-4.29-2.27c-2.88,0-4.67,2.33-4.67,5.56s1.79,5.54,4.67,5.54a5.31,5.31,0,0,0,4.29-2.24Z" transform="translate(-39.48 -153.3)"/><path class="cls-3" d="M608.79,233.89c0-4.45,3-8.09,7.8-8.09s7.81,3.64,7.81,8.09-3,8.13-7.81,8.13-7.8-3.65-7.8-8.13m12.6,0c0-2.91-1.69-5.53-4.8-5.53s-4.8,2.62-4.8,5.53,1.73,5.57,4.8,5.57,4.8-2.63,4.8-5.57" transform="translate(-39.48 -153.3)"/><path class="cls-3" d="M628.08,237.51a7.51,7.51,0,0,0,5.19,2.2c2.17,0,3.32-.89,3.32-2.2,0-1.54-1.76-2-3.74-2.5-2.62-.61-5.7-1.31-5.7-4.64,0-2.46,2.12-4.57,5.89-4.57a8.3,8.3,0,0,1,5.89,2.2l-1.28,2a6,6,0,0,0-4.58-1.89c-2,0-3.16.77-3.16,2s1.66,1.79,3.58,2.24c2.69.6,5.89,1.34,5.89,4.89,0,2.66-2.18,4.74-6.24,4.74a8.78,8.78,0,0,1-6.43-2.4Z" transform="translate(-39.48 -153.3)"/><path class="cls-3" d="M658.06,225.8c4.64,0,7.52,3.61,7.52,8.35v.7H653.36a5.07,5.07,0,0,0,5.25,4.8,6.57,6.57,0,0,0,4.57-1.82l1.35,1.88a8.68,8.68,0,0,1-6.21,2.31,8.11,8.11,0,0,1-.26-16.22m-4.73,7h9.44a4.58,4.58,0,0,0-4.71-4.61,4.73,4.73,0,0,0-4.73,4.61" transform="translate(-39.48 -153.3)"/><path class="cls-3" d="M688,231.33c0-1.79-.8-3-2.68-3a5,5,0,0,0-3.84,2.2v11.08h-2.88V231.33c0-1.79-.77-3-2.72-3a5.05,5.05,0,0,0-3.78,2.24v11H669.2V226.18h2.88v2.18a6.69,6.69,0,0,1,5-2.56,4,4,0,0,1,4.19,2.88,6.5,6.5,0,0,1,5.22-2.88c2.85,0,4.38,1.56,4.38,4.67v11.17H688Z" transform="translate(-39.48 -153.3)"/><path class="cls-3" d="M394.87,275.62H384.41L382.68,280h-3.52l8.48-21.35h4L400.12,280H396.6Zm-9.54-2.85h8.61l-4.32-11.29Z" transform="translate(-39.48 -153.3)"/><path class="cls-3" d="M413.62,277.83a6.41,6.41,0,0,1-5.06,2.59c-4,0-6.91-3-6.91-8.1s2.88-8.12,6.91-8.12a6.3,6.3,0,0,1,5.06,2.62v-8.13h2.88V280h-2.88Zm0-8.8a5.34,5.34,0,0,0-4.29-2.27c-2.88,0-4.67,2.33-4.67,5.56s1.79,5.54,4.67,5.54a5.31,5.31,0,0,0,4.29-2.24Z" transform="translate(-39.48 -153.3)"/><path class="cls-3" d="M439.89,269.73c0-1.79-.8-3-2.69-3a5,5,0,0,0-3.84,2.2V280h-2.88V269.73c0-1.79-.76-3-2.72-3A5,5,0,0,0,424,269v11h-2.88V264.58H424v2.18a6.69,6.69,0,0,1,5-2.56,4,4,0,0,1,4.19,2.88,6.5,6.5,0,0,1,5.22-2.88c2.85,0,4.38,1.56,4.38,4.67V280h-2.88Z" transform="translate(-39.48 -153.3)"/><path class="cls-3" d="M446.9,260.16a1.88,1.88,0,0,1,1.86-1.85,1.85,1.85,0,0,1,1.85,1.85,1.83,1.83,0,0,1-1.85,1.83,1.86,1.86,0,0,1-1.86-1.83m.45,4.42h2.88V280h-2.88Z" transform="translate(-39.48 -153.3)"/><path class="cls-3" d="M465.24,270.15c0-2.56-1.32-3.39-3.3-3.39a5.52,5.52,0,0,0-4.26,2.24v11H454.8V264.58h2.88v2.18a7.39,7.39,0,0,1,5.48-2.56c3.26,0,5,1.72,5,5V280h-2.88Z" transform="translate(-39.48 -153.3)"/><path class="cls-3" d="M472.24,260.16a1.88,1.88,0,0,1,1.86-1.85,1.85,1.85,0,0,1,1.85,1.85A1.83,1.83,0,0,1,474.1,262a1.86,1.86,0,0,1-1.86-1.83m.45,4.42h2.88V280h-2.88Z" transform="translate(-39.48 -153.3)"/><path class="cls-3" d="M480.18,275.91a7.5,7.5,0,0,0,5.18,2.21c2.18,0,3.33-.9,3.33-2.21,0-1.54-1.76-2.05-3.74-2.5-2.63-.61-5.7-1.31-5.7-4.64,0-2.46,2.11-4.57,5.89-4.57a8.33,8.33,0,0,1,5.89,2.2l-1.28,2a6,6,0,0,0-4.58-1.89c-1.95,0-3.17.77-3.17,2s1.67,1.79,3.59,2.24c2.68.61,5.88,1.34,5.88,4.89,0,2.66-2.17,4.74-6.23,4.74a8.8,8.8,0,0,1-6.44-2.4Z" transform="translate(-39.48 -153.3)"/><path class="cls-3" d="M495.7,276.61v-9.5h-2.56v-2.53h2.56v-4.22h2.88v4.22h3.14v2.53h-3.14V276c0,1.09.51,1.89,1.5,1.89a2.21,2.21,0,0,0,1.57-.61l.74,2.18a4.14,4.14,0,0,1-3,1c-2.43,0-3.68-1.38-3.68-3.81" transform="translate(-39.48 -153.3)"/><path class="cls-3" d="M504.92,264.58h2.88V267a6.53,6.53,0,0,1,5.05-2.72v2.91a4.8,4.8,0,0,0-1-.1,5.45,5.45,0,0,0-4.06,2.24V280h-2.88Z" transform="translate(-39.48 -153.3)"/><path class="cls-3" d="M525.27,278.34a6.65,6.65,0,0,1-5.06,2.08,5.14,5.14,0,0,1-5.38-5.12c0-3.52,2.79-5.06,5.38-5.06a6.48,6.48,0,0,1,5.06,2.05v-2.56c0-1.92-1.57-3.07-3.78-3.07a6.32,6.32,0,0,0-4.64,2l-1.25-2a8.71,8.71,0,0,1,6.34-2.52c3.36,0,6.21,1.47,6.21,5.4V280h-2.88Zm0-4.32a4.91,4.91,0,0,0-4-1.76c-2.08,0-3.55,1.25-3.55,3.07s1.47,3.07,3.55,3.07a4.91,4.91,0,0,0,4-1.76Z" transform="translate(-39.48 -153.3)"/><path class="cls-3" d="M543.54,275.94l1.92,1.76a6.55,6.55,0,0,1-5.12,2.69l-.55,1.37a2.19,2.19,0,0,1,1.19-.35,2,2,0,0,1,2.11,2.11c0,1.67-1.5,2.69-3.39,2.69a5.62,5.62,0,0,1-3.3-1l.64-1.34a4.21,4.21,0,0,0,2.59.92c1,0,1.89-.41,1.89-1.31,0-.57-.38-1-1.15-1a1.56,1.56,0,0,0-1.12.48l-1.22-.67.74-1.95c-4.19-.42-7-3.75-7-8.1,0-4.64,3.19-8.09,7.87-8.09a6.74,6.74,0,0,1,5.79,2.72l-1.92,1.76a4.31,4.31,0,0,0-3.75-1.92c-3,0-5,2.33-5,5.53s2,5.57,5,5.57a4.4,4.4,0,0,0,3.75-1.92" transform="translate(-39.48 -153.3)"/><path class="cls-3" d="M558.16,278.34a6.62,6.62,0,0,1-5,2.08,5.14,5.14,0,0,1-5.38-5.12c0-3.52,2.79-5.06,5.38-5.06a6.45,6.45,0,0,1,5,2.05v-2.56c0-1.92-1.57-3.07-3.77-3.07a6.3,6.3,0,0,0-4.64,2l-1.25-2a8.7,8.7,0,0,1,6.33-2.52c3.36,0,6.21,1.47,6.21,5.4V280h-2.88Zm-5.28-18.75c-.8,0-1.44.77-1.44,2.53h-1.63c0-2.56,1.12-4.29,3.2-4.29a2.9,2.9,0,0,1,2.4,1.57c.45.6.83,1.15,1.47,1.15.8,0,1.41-.77,1.41-2.53H560c0,2.56-1.12,4.29-3.2,4.29a2.93,2.93,0,0,1-2.43-1.57c-.41-.61-.8-1.15-1.44-1.15M558.16,274a4.9,4.9,0,0,0-4-1.76c-2.08,0-3.55,1.25-3.55,3.07s1.47,3.07,3.55,3.07a4.9,4.9,0,0,0,4-1.76Z" transform="translate(-39.48 -153.3)"/><path class="cls-3" d="M564.69,272.29c0-4.45,3-8.09,7.81-8.09s7.81,3.64,7.81,8.09-3,8.13-7.81,8.13-7.81-3.65-7.81-8.13m12.61,0c0-2.91-1.7-5.53-4.8-5.53s-4.8,2.62-4.8,5.53,1.73,5.57,4.8,5.57,4.8-2.62,4.8-5.57" transform="translate(-39.48 -153.3)"/><path class="cls-3" d="M592.27,258.69h9c4.38,0,6.81,3,6.81,6.56a6.38,6.38,0,0,1-6.81,6.56h-5.8V280h-3.2Zm8.58,2.82h-5.38V269h5.38a3.75,3.75,0,1,0,0-7.49" transform="translate(-39.48 -153.3)"/><path class="cls-3" d="M621.74,277.92a7.62,7.62,0,0,1-5.5,2.5c-3.29,0-4.93-1.66-4.93-4.93V264.58h2.88v9.95c0,2.56,1.28,3.33,3.27,3.33a5.55,5.55,0,0,0,4.28-2.18v-11.1h2.88V280h-2.88Zm-5-15.68,4.6-4.6h2.85l-5.34,4.6Z" transform="translate(-39.48 -153.3)"/><path class="cls-3" d="M629.2,258.69h2.88v8.13a6.22,6.22,0,0,1,5.06-2.62c4,0,6.88,3.16,6.88,8.12s-2.88,8.1-6.88,8.1a6.36,6.36,0,0,1-5.06-2.59V280H629.2Zm7.17,19.17c2.88,0,4.67-2.3,4.67-5.54s-1.79-5.56-4.67-5.56a5.32,5.32,0,0,0-4.29,2.3v6.56a5.27,5.27,0,0,0,4.29,2.24" transform="translate(-39.48 -153.3)"/><rect class="cls-3" x="608.21" y="105.4" width="2.88" height="21.34"/><path class="cls-3" d="M654.7,260.16a1.88,1.88,0,0,1,1.86-1.85,1.86,1.86,0,0,1,1.86,1.85,1.84,1.84,0,0,1-1.86,1.83,1.86,1.86,0,0,1-1.86-1.83m.45,4.42H658V280h-2.88Z" transform="translate(-39.48 -153.3)"/><path class="cls-3" d="M669.52,264.2a6.74,6.74,0,0,1,5.79,2.72l-1.92,1.76a4.3,4.3,0,0,0-3.74-1.92c-3,0-5,2.33-5,5.53s2,5.57,5,5.57a4.4,4.4,0,0,0,3.74-1.92l1.92,1.76a6.76,6.76,0,0,1-5.79,2.72c-4.67,0-7.87-3.49-7.87-8.13s3.2-8.09,7.87-8.09" transform="translate(-39.48 -153.3)"/><path class="cls-3" d="M688,278.34a6.62,6.62,0,0,1-5,2.08,5.14,5.14,0,0,1-5.38-5.12c0-3.52,2.79-5.06,5.38-5.06a6.45,6.45,0,0,1,5,2.05v-2.56c0-1.92-1.56-3.07-3.77-3.07a6.32,6.32,0,0,0-4.64,2l-1.25-2a8.71,8.71,0,0,1,6.34-2.52c3.36,0,6.2,1.47,6.2,5.4V280H688Zm0-4.32a4.88,4.88,0,0,0-4-1.76c-2.08,0-3.56,1.25-3.56,3.07s1.48,3.07,3.56,3.07a4.88,4.88,0,0,0,4-1.76Z" transform="translate(-39.48 -153.3)"/><path class="cls-3" d="M695,283.08a5,5,0,0,0,2.18-3c-.07,0-.32.06-.48.06a1.72,1.72,0,0,1-1.73-1.82,1.94,1.94,0,0,1,2-1.95,2.36,2.36,0,0,1,2.24,2.65,6.5,6.5,0,0,1-2.81,5.16Z" transform="translate(-39.48 -153.3)"/><polygon class="cls-3" points="334.36 143.79 348.7 143.79 348.7 146.61 337.56 146.61 337.56 152.85 348.47 152.85 348.47 155.66 337.56 155.66 337.56 162.32 348.7 162.32 348.7 165.14 334.36 165.14 334.36 143.79"/><path class="cls-3" d="M399,302.6a6.74,6.74,0,0,1,5.79,2.72l-1.92,1.75a4.32,4.32,0,0,0-3.74-1.91c-3,0-5,2.33-5,5.53s2,5.57,5,5.57a4.4,4.4,0,0,0,3.74-1.92l1.92,1.76a6.76,6.76,0,0,1-5.79,2.72c-4.67,0-7.87-3.49-7.87-8.13s3.2-8.09,7.87-8.09" transform="translate(-39.48 -153.3)"/><path class="cls-3" d="M407,310.69c0-4.45,3-8.09,7.81-8.09s7.8,3.64,7.8,8.09-3,8.13-7.8,8.13-7.81-3.65-7.81-8.13m12.61,0c0-2.91-1.7-5.53-4.8-5.53s-4.8,2.62-4.8,5.53,1.72,5.57,4.8,5.57,4.8-2.63,4.8-5.57" transform="translate(-39.48 -153.3)"/><path class="cls-3" d="M436.72,308.55c0-2.56-1.31-3.4-3.29-3.4a5.51,5.51,0,0,0-4.26,2.25v11h-2.88V303h2.88v2.17a7.4,7.4,0,0,1,5.47-2.55c3.27,0,5,1.72,5,5v10.84h-2.88Z" transform="translate(-39.48 -153.3)"/><path class="cls-3" d="M443.22,310.69c0-4.45,3-8.09,7.81-8.09s7.81,3.64,7.81,8.09-3,8.13-7.81,8.13-7.81-3.65-7.81-8.13m12.61,0c0-2.91-1.7-5.53-4.8-5.53s-4.8,2.62-4.8,5.53,1.73,5.57,4.8,5.57,4.8-2.62,4.8-5.57M451,297.41l-2.5,3.23h-1.85l3-4.6h2.69l3.1,4.6h-1.88Z" transform="translate(-39.48 -153.3)"/><path class="cls-3" d="M481.27,308.13c0-1.79-.8-3-2.69-3a5,5,0,0,0-3.84,2.21v11.07h-2.88v-10.3c0-1.79-.77-3-2.72-3a5.06,5.06,0,0,0-3.78,2.25v11h-2.88V303h2.88v2.17a6.69,6.69,0,0,1,5-2.55,4,4,0,0,1,4.2,2.88,6.44,6.44,0,0,1,5.21-2.88c2.85,0,4.39,1.56,4.39,4.67v11.16h-2.88Z" transform="translate(-39.48 -153.3)"/><path class="cls-3" d="M488.28,298.56a1.86,1.86,0,0,1,3.71,0,1.86,1.86,0,0,1-3.71,0m.44,4.42h2.88v15.45h-2.88Z" transform="translate(-39.48 -153.3)"/><path class="cls-3" d="M503.09,302.6a6.74,6.74,0,0,1,5.79,2.72L507,307.07a4.31,4.31,0,0,0-3.74-1.91c-3,0-5,2.33-5,5.53s1.95,5.57,5,5.57a4.39,4.39,0,0,0,3.74-1.92l1.92,1.76a6.76,6.76,0,0,1-5.79,2.72c-4.67,0-7.87-3.49-7.87-8.13s3.2-8.09,7.87-8.09" transform="translate(-39.48 -153.3)"/><path class="cls-3" d="M521.59,316.74a6.65,6.65,0,0,1-5.06,2.08,5.14,5.14,0,0,1-5.38-5.12c0-3.52,2.79-5.06,5.38-5.06a6.48,6.48,0,0,1,5.06,2.05v-2.56c0-1.92-1.57-3.07-3.78-3.07a6.32,6.32,0,0,0-4.64,2.05l-1.25-2a8.71,8.71,0,0,1,6.34-2.52c3.36,0,6.21,1.47,6.21,5.4v10.44h-2.88Zm0-4.32a4.91,4.91,0,0,0-4-1.76c-2.08,0-3.55,1.25-3.55,3.07s1.47,3.07,3.55,3.07a4.91,4.91,0,0,0,4-1.76Z" transform="translate(-39.48 -153.3)"/><path class="cls-3" d="M544.11,302.6c4.64,0,7.52,3.61,7.52,8.35v.7H539.41a5.07,5.07,0,0,0,5.25,4.8,6.57,6.57,0,0,0,4.57-1.82l1.35,1.88a8.68,8.68,0,0,1-6.21,2.31,8.11,8.11,0,0,1-.26-16.22m-4.73,7h9.44a4.58,4.58,0,0,0-4.71-4.61,4.73,4.73,0,0,0-4.73,4.61" transform="translate(-39.48 -153.3)"/><polygon class="cls-3" points="524.09 143.79 538.42 143.79 538.42 146.61 527.29 146.61 527.29 152.85 538.2 152.85 538.2 155.66 527.29 155.66 527.29 165.14 524.09 165.14 524.09 143.79"/><path class="cls-3" d="M580.85,298.56a1.87,1.87,0,0,1,1.86-1.85,1.85,1.85,0,0,1,1.85,1.85,1.83,1.83,0,0,1-1.85,1.83,1.85,1.85,0,0,1-1.86-1.83m.45,4.42h2.88v15.45H581.3Z" transform="translate(-39.48 -153.3)"/><path class="cls-3" d="M599.18,308.55c0-2.56-1.31-3.4-3.29-3.4a5.51,5.51,0,0,0-4.26,2.25v11h-2.88V303h2.88v2.17a7.42,7.42,0,0,1,5.47-2.55c3.27,0,5,1.72,5,5v10.84h-2.88Z" transform="translate(-39.48 -153.3)"/><path class="cls-3" d="M616.18,316.74a6.65,6.65,0,0,1-5.06,2.08,5.14,5.14,0,0,1-5.38-5.12c0-3.52,2.79-5.06,5.38-5.06a6.48,6.48,0,0,1,5.06,2.05v-2.56c0-1.92-1.57-3.07-3.78-3.07a6.32,6.32,0,0,0-4.64,2.05l-1.25-2a8.71,8.71,0,0,1,6.34-2.52c3.36,0,6.21,1.47,6.21,5.4v10.44h-2.88Zm0-4.32a4.91,4.91,0,0,0-4-1.76c-2.08,0-3.55,1.25-3.55,3.07s1.47,3.07,3.55,3.07a4.91,4.91,0,0,0,4-1.76Z" transform="translate(-39.48 -153.3)"/><path class="cls-3" d="M634.1,308.55c0-2.56-1.32-3.4-3.3-3.4a5.53,5.53,0,0,0-4.26,2.25v11h-2.88V303h2.88v2.17A7.42,7.42,0,0,1,632,302.6c3.26,0,5,1.72,5,5v10.84H634.1Z" transform="translate(-39.48 -153.3)"/><path class="cls-3" d="M648.46,302.6a6.74,6.74,0,0,1,5.8,2.72l-1.92,1.75a4.32,4.32,0,0,0-3.75-1.91c-3,0-5,2.33-5,5.53s1.95,5.57,5,5.57a4.4,4.4,0,0,0,3.75-1.92l1.92,1.76a6.77,6.77,0,0,1-5.8,2.72c-4.67,0-7.87-3.49-7.87-8.13s3.2-8.09,7.87-8.09" transform="translate(-39.48 -153.3)"/><path class="cls-3" d="M664.21,302.6c4.64,0,7.52,3.61,7.52,8.35v.7H659.5a5.08,5.08,0,0,0,5.25,4.8,6.59,6.59,0,0,0,4.58-1.82l1.34,1.88a8.66,8.66,0,0,1-6.21,2.31,8.11,8.11,0,0,1-.25-16.22m-4.74,7h9.44a4.57,4.57,0,0,0-4.7-4.61,4.74,4.74,0,0,0-4.74,4.61" transform="translate(-39.48 -153.3)"/><path class="cls-3" d="M674.9,298.56a1.86,1.86,0,0,1,3.71,0,1.86,1.86,0,0,1-3.71,0m.44,4.42h2.88v15.45h-2.88Z" transform="translate(-39.48 -153.3)"/><path class="cls-3" d="M682.8,303h2.88v2.37a6.55,6.55,0,0,1,5.06-2.72v2.91a4.82,4.82,0,0,0-1-.1,5.45,5.45,0,0,0-4.06,2.24v10.75H682.8Z" transform="translate(-39.48 -153.3)"/><path class="cls-3" d="M703.15,316.74a6.65,6.65,0,0,1-5,2.08,5.14,5.14,0,0,1-5.38-5.12c0-3.52,2.78-5.06,5.38-5.06a6.46,6.46,0,0,1,5,2.05v-2.56c0-1.92-1.57-3.07-3.77-3.07a6.3,6.3,0,0,0-4.64,2.05l-1.25-2a8.7,8.7,0,0,1,6.33-2.52c3.36,0,6.21,1.47,6.21,5.4v10.44h-2.88Zm0-4.32a4.9,4.9,0,0,0-4-1.76c-2.08,0-3.55,1.25-3.55,3.07s1.47,3.07,3.55,3.07a4.9,4.9,0,0,0,4-1.76Z" transform="translate(-39.48 -153.3)"/><path class="cls-3" d="M433.94,154.6c9.75,0,15.89,4.73,19.49,10.31l-8.33,4.52a13.37,13.37,0,0,0-11.16-5.93c-8.55,0-14.76,6.57-14.76,15.47s6.21,15.47,14.76,15.47a15.89,15.89,0,0,0,10.17-3.61v-5.72H431.54v-8.62H454v18a26.17,26.17,0,0,1-20.06,8.9c-13.77,0-25.08-9.61-25.08-24.44s11.31-24.37,25.08-24.37" transform="translate(-39.48 -153.3)"/><polygon class="cls-3" points="422.5 2.08 455.84 2.08 455.84 10.69 432.53 10.69 432.53 20.94 455.35 20.94 455.35 29.55 432.53 29.55 432.53 40.5 455.84 40.5 455.84 49.19 422.5 49.19 422.5 2.08"/><path class="cls-3" d="M533.86,194.21H512.4l-3,8.28H498.15l18.57-48h12.82l18.5,48H536.88Zm-18.72-8.86h15.91l-7.92-22Z" transform="translate(-39.48 -153.3)"/><path class="cls-3" d="M552.41,155.37h22c10.24,0,15.82,6.93,15.82,15.19s-5.65,15.05-15.82,15.05h-12v16.88h-10Zm20.7,8.62H562.44v13h10.67c3.95,0,6.92-2.54,6.92-6.5s-3-6.5-6.92-6.5" transform="translate(-39.48 -153.3)"/><polygon class="cls-3" points="557.01 2.08 590.35 2.08 590.35 10.69 567.04 10.69 567.04 20.94 589.86 20.94 589.86 29.55 567.04 29.55 567.04 40.5 590.35 40.5 590.35 49.19 557.01 49.19 557.01 2.08"/><polygon class="cls-3" points="598.2 2.08 631.53 2.08 631.53 10.69 608.22 10.69 608.22 20.94 631.04 20.94 631.04 29.55 608.22 29.55 608.22 49.19 598.2 49.19 598.2 2.08"/><polygon class="cls-3" points="305.84 90.4 229.45 14 198.1 45.35 242.86 90.12 197.82 135.16 229.45 166.79 305.84 90.4"/><polygon class="cls-3" points="62.63 90.12 107.71 45.04 76.4 13.72 0 90.12 76.4 166.51 107.69 135.18 62.63 90.12"/><path class="cls-3" d="M192.23,157.54l43.23,43.23,42.64,42.64-40.82,40.82-42.93-42.94-2.12-2.12-2.12,2.12-38.18,38.18-4.76,4.76-40.82-40.82,43-43Zm0-4.24-45,45-45.08,45.08,45.06,45.06,6.88-6.88,38.18-38.18,45.05,45.06h0l45-45-44.76-44.76Z" transform="translate(-39.48 -153.3)"/></g></svg>