<svg id="Camada_1" data-name="Camada 1" xmlns="http://www.w3.org/2000/svg" viewBox="0 0 140.14 133.92"><defs><style>.cls-1{fill:#1d3e8c;}.cls-2{fill:#35a8e0;}.cls-3{fill:#fff;}.cls-4{fill:#0052a0;}</style></defs><polygon class="cls-1" points="101.77 30.29 101.77 30.29 101.77 30.29 101.77 30.29"/><polygon class="cls-1" points="93.92 34.4 77.8 34.97 77.66 31.13 101.77 30.29 70.07 0 40.15 28.59 70.07 57.19 93.92 34.4"/><polygon class="cls-2" points="70.07 73.34 70.07 73.34 70.07 73.34 70.07 73.34"/><polygon class="cls-2" points="101.77 103.63 70.07 73.34 69.19 96.38 65.18 96.24 65.77 80.84 40.15 105.33 70.07 133.92 101.77 103.63"/><polygon class="cls-3" points="65.18 96.24 69.2 96.38 70.07 73.34 70.07 73.34 45.96 74.18 46.11 78.02 62.21 77.46 36.6 101.93 37.03 102.34 40.15 105.33 40.15 105.33 65.77 80.85 65.18 96.24"/><polygon class="cls-4" points="101.77 30.29 101.77 30.29 100.89 53.33 96.87 53.19 97.46 37.8 70.07 63.97 36.6 31.99 0 66.96 37.03 102.34 36.6 101.93 62.21 77.46 46.11 78.02 45.96 74.18 70.07 73.34 70.07 73.34 70.07 73.34 101.77 103.63 140.14 66.96 101.77 30.29"/><polygon class="cls-3" points="97.46 37.8 96.87 53.19 100.89 53.33 101.77 30.29 101.77 30.29 77.66 31.13 77.8 34.97 93.92 34.4 70.07 57.19 40.15 28.59 36.6 31.99 70.07 63.97 97.46 37.8"/></svg>