<svg xmlns="http://www.w3.org/2000/svg" viewBox="0 0 381.87 381.84"><defs><style>.a,.f{fill:#1d1d1b;}.a,.b,.c,.d,.e,.g,.h{fill-rule:evenodd;}.b{fill:#d49f00;}.c{fill:#a97500;}.d{fill:#005286;}.e{fill:#ededed;}.g{fill:#ef7d00;}.h{fill:#c6c6c6;}</style></defs><path class="a" d="M130,248.32l-8.5-101.65h7.67l-.55-7.62h-1.44a2.41,2.41,0,0,1-2.43-2.39V134.9c-3-.26-5.7-.8-5.84-4.41a23.08,23.08,0,0,1,0-2.63c.17-3.61,2.89-4,5.84-4.3v-1.78a2.41,2.41,0,0,1,2.4-2.42h23.19a2.41,2.41,0,0,1,2.43,2.39v1.81c2.95.28,5.66.69,5.83,4.3a23.08,23.08,0,0,1,0,2.63c-.13,3.61-2.88,4.15-5.83,4.41v1.73a2.41,2.41,0,0,1-2.4,2.42h-1.85l.22,7.62h28.77l-.15-7.62h-1.64a2.39,2.39,0,0,1-2.42-2.38V134.9c-3-.26-5.71-.8-5.84-4.41a23.08,23.08,0,0,1,0-2.63c.17-3.61,2.88-4,5.84-4.3v-1.78a2.39,2.39,0,0,1,2.38-2.42h23.2a2.41,2.41,0,0,1,2.43,2.39v1.81c3,.28,5.67.69,5.84,4.3a23.08,23.08,0,0,1,0,2.63c-.14,3.61-2.89,4.15-5.84,4.41v1.73a2.41,2.41,0,0,1-2.4,2.42h-1.66l-.17,7.62h28.78l.23-7.62h-1.82a2.41,2.41,0,0,1-2.43-2.39V134.9c-3-.26-5.7-.8-5.84-4.41a23.08,23.08,0,0,1,0-2.63c.16-3.61,2.88-4,5.83-4.3v-1.78a2.41,2.41,0,0,1,2.4-2.42h23.19a2.41,2.41,0,0,1,2.43,2.39v1.81c3,.28,5.67.69,5.84,4.3v2.63c-.14,3.61-2.89,4.15-5.84,4.41v1.73a2.41,2.41,0,0,1-2.4,2.42H246l-.54,7.62h7.78l-8.49,101.65a39.48,39.48,0,0,1,26.18-3.48c-5.88,6.36-9,10.26-11.54,18.92,7.72,2.83,16.93,7.21,16.34,16.41a74.62,74.62,0,0,1-6,24c-7.73,17.33-20.25,17.59-36.54,15.06l-.27,3.77c1.78-1,5.33.12,7.77-.74,1.81,9.39-6.11,4.8-5.7,9.83a3.52,3.52,0,0,1-3,4,4.58,4.58,0,0,1-.53,0c-2,4.82-10.56,4.06-11.67-1a3.5,3.5,0,0,1-2.91-4,3.77,3.77,0,0,1,.14-.58c1.28-4.89-6.44-1.64-4.12-10.65,2,1.07,6.08.37,7.9,2.2L221,317a190.33,190.33,0,0,0-27.53-3.72l-.09,4.09c1.8-.91,5.66-.44,7.63-1.47,2.53,9.33-5.58,5.39-4.84,10.27.35,2.43-.74,4-3.15,4.4-1.55,5-10.16,5-11.71,0-2.41-.41-3.5-2-3.15-4.4.74-4.88-7.37-.94-4.84-10.27,2,1,5.83.56,7.63,1.47l-.08-4.07a193.2,193.2,0,0,0-27.1,3.72l.14,5c1.83-1.83,5.9-1.13,7.9-2.2,2.32,9-5.39,5.76-4.11,10.65a3.5,3.5,0,0,1-2.19,4.44,3.77,3.77,0,0,1-.58.14c-1.12,5.08-9.69,5.84-11.67,1a3.51,3.51,0,0,1-3.56-3.44,3.43,3.43,0,0,1,0-.56c.41-5-7.51-.44-5.7-9.83,2.44.86,6-.22,7.77.74l-.27-3.76c-16.3,2.59-28.77,2.27-36.5-15a74.62,74.62,0,0,1-6-24c-.59-9.2,8.62-13.58,16.34-16.41-2.53-8.66-5.66-12.56-11.54-18.92A39.54,39.54,0,0,1,130,248.32Zm92,30.21-.24,8c-5.75-1.1-11.86-2.24-18.52-3a85.75,85.75,0,0,0,18.76-5Zm13.27,10.41,1.22-17.15c5.85,3.55,16.9,9.84,17.49,17.45a61.78,61.78,0,0,1-18.71-.3Zm-82.7-10.46.23,8.08c5.79-1.11,11.94-2.25,18.64-3a85.68,85.68,0,0,1-18.87-5.05ZM139.3,289l-1.22-17.1c-5.83,3.5-16.79,9.82-17.38,17.38A61.7,61.7,0,0,0,139.3,289Z" transform="translate(0)"/><path class="b" d="M223.05,317.45l-.1,3.32a8.52,8.52,0,0,1,4.12-2,8.48,8.48,0,0,1,3.76,2.76l.19-2.63c-2.6-.44-5.25-.94-8-1.46Z" transform="translate(0)"/><path class="b" d="M224.21,277.6l-.28,9.35c3.18.61,6.25,1.19,9.25,1.67l1.23-17.21A45.55,45.55,0,0,1,224.21,277.6Z" transform="translate(0)"/><polygon class="b" points="228.23 139.05 228.01 146.67 243.29 146.67 243.83 139.05 228.23 139.05 228.23 139.05"/><path class="c" d="M225.16,277.15l-.31,10,1.45.27.45-11c-.53.26-1.05.52-1.59.77Z" transform="translate(0)"/><path class="c" d="M229.54,140.2l-.2,6.47H232l.26-6.47Zm4.89,0-.31,6.47h2.61l.36-6.47Zm4.89,0-.4,6.47h2.61l.47-6.47Z" transform="translate(0)"/><path class="c" d="M228,275.73l-.57,11.88,1.46.27.73-13.08Q228.83,275.28,228,275.73Z" transform="translate(0)"/><path class="c" d="M231.07,273.86l-.88,14.26,1.46.25,1.09-15.67C232.2,273.1,231.64,273.48,231.07,273.86Z" transform="translate(0)"/><path class="b" d="M224.27,121.51a.25.25,0,0,0-.28.22v1.74c7.89-.19,15.83-.19,23.72,0v-1.69a.25.25,0,0,0-.23-.27H224.27Z" transform="translate(0)"/><path class="b" d="M242.54,125.31c1.14,0,7.47.07,9.5.66a2,2,0,0,1,1.53,2.23,17,17,0,0,1,0,2.26c0,1.3-.71,1.74-2.43,2a67.34,67.34,0,0,1-8.52.42H229.1a67.34,67.34,0,0,1-8.52-.42c-1.71-.29-2.38-.73-2.43-2a17,17,0,0,1,0-2.26,2,2,0,0,1,1.51-2.2c2-.59,8.36-.66,9.5-.66Z" transform="translate(0)"/><path class="b" d="M247.43,136.9a.25.25,0,0,0,.28-.22v-1.74c-7.89.2-15.83.2-23.72,0v1.69a.25.25,0,0,0,.23.27h23.21Z" transform="translate(0)"/><path class="b" d="M229.66,334.37c.37-4.25-7.49-4.94-7.86-.69S229.29,338.61,229.66,334.37Zm9.27-9.8c-2.48.41-4-1-6.56,1.52l-2.65,2.58-.78-.48,1.43-2.93c1-2.13-1.79-4.5-3.42-5.14-1.72.35-4.92,2.19-4.27,4.47l.9,3.13-.85.34-2.16-3c-2.11-2.95-3.82-1.8-6.19-2.63-.85,3.72,6.29,2.5,4.68,8.65-.35,1.35.41,1.8,1.52,2,1-5.3,10.35-4.47,10.38.91,1.14,0,2-.35,1.85-1.74-.52-6.34,6.31-3.89,6.12-7.71Z" transform="translate(0)"/><path class="b" d="M191.25,313.23l-.06,3a8.54,8.54,0,0,0-4.11-2.54,8.64,8.64,0,0,0-4.1,2.54l-.06-3c1.46-.05,2.93-.08,4.44-.08,1.32,0,2.61,0,3.89.06Z" transform="translate(0)"/><polygon class="b" points="195.11 139.05 194.94 146.67 179.65 146.67 179.5 139.05 195.11 139.05 195.11 139.05"/><path class="c" d="M183.92,140.2v6.47h-2.43l-.1-6.47Zm4.65,0v6.47h-2.52V140.2Zm4.65,0-.13,6.47H190.6l.09-6.47Z" transform="translate(0)"/><path class="d" d="M108,246.24a40.21,40.21,0,0,1,22.18,4.58l.21,2.56a25.37,25.37,0,0,0,.85,4.73,73.22,73.22,0,0,1-9,3.29c-1.62.52-3.28,1.06-4.94,1.64-1.75-5.93-4.81-12.19-9.35-16.8Z" transform="translate(0)"/><path class="d" d="M266.7,246.24a40.21,40.21,0,0,0-22.18,4.58l-.21,2.56a24.46,24.46,0,0,1-.86,4.73,74,74,0,0,0,9,3.29c1.61.52,3.28,1.06,4.94,1.64,1.74-5.93,4.8-12.19,9.35-16.8Z" transform="translate(0)"/><path class="b" d="M151.56,317.47l.09,3.3a8.48,8.48,0,0,0-4.11-2,8.56,8.56,0,0,0-3.77,2.76l-.18-2.61c2.6-.44,5.25-.94,8-1.46Z" transform="translate(0)"/><path class="b" d="M150.4,277.55l.27,9.42c-3.17.61-6.24,1.19-9.24,1.67l-1.23-17.33A45,45,0,0,0,150.4,277.55Z" transform="translate(0)"/><polygon class="b" points="146.38 139.05 146.6 146.67 131.32 146.67 130.78 139.05 146.38 139.05 146.38 139.05"/><path class="e" d="M101.29,281.23c-2.13-13.57,20.91-16.41,30.65-21.07a26.08,26.08,0,0,0,6.12,9.21c-7.14,4.31-18.61,10.77-19.47,19.48a48,48,0,0,1-17.3-7.62Z" transform="translate(0)"/><path class="e" d="M273.43,281.23c2.13-13.57-20.91-16.41-30.65-21.07a26.08,26.08,0,0,1-6.12,9.21c7.13,4.31,18.61,10.77,19.47,19.48a48.06,48.06,0,0,0,17.3-7.62Z" transform="translate(0)"/><path class="c" d="M149.44,277.1l.32,10-1.45.27-.45-11.1C148.38,276.59,148.86,276.85,149.44,277.1Z" transform="translate(0)"/><path class="c" d="M146.64,275.67l.58,12-1.46.27L145,274.73c.53.32,1.08.63,1.62.94Z" transform="translate(0)"/><path class="c" d="M143.53,273.78l.89,14.36-1.46.25-1.1-15.78C142.4,273,143,273.4,143.53,273.78Z" transform="translate(0)"/><path class="c" d="M135.29,140.2l.4,6.47h-2.62l-.45-6.47Zm4.89,0,.31,6.47h-2.62l-.36-6.47Zm4.89,0,.2,6.47h-2.61l-.26-6.47Z" transform="translate(0)"/><path class="d" d="M132.55,253.21l-8.72-104.39H250.89l-8.72,104.39c-3.28,39.25-106.34,39.25-109.62,0Zm83.22,10.36a6.93,6.93,0,0,1-2.72,3.39c-3,2-6.64.58-10.17-.8-5.83-2.29-7.49-3.23-11.13,1.74-1.29-2.85-2.17-5.53.47-8.16,2.47-2.46,8.43-2,11.17-4.11,2.31-1.77-.84-5.69-2-7.25l-7.47-2.24-1.73-7.66-.29-.18a58.07,58.07,0,0,0-12.29-6.07c-4.39-1.39-8.75-1.66-11.38,1.15-3.33,3.57-1.54,6.5.54,9.89,2.37,3.87,5,8.24,2.9,14.62l-.92,2.73-1.45-2.49c-2.81-4.82-9.44-7.46-16-10C143,244,133,240,135.87,227.82a14.34,14.34,0,0,1,.41-1.42c2.31-6.83,8.94-10.17,16.62-11.4a60.93,60.93,0,0,1,22.19,1.08h0l-10.2-9.39c-1.72,1.43-3.44,2.07-5.47.11-1.5,1.11-3.06,2-4.75.74a14.11,14.11,0,0,1-3.15-3.39c-1.09-1.74-.05-3.28,1.11-4.64-2.06-2.45-.8-4.27,1.16-6.1l12-11.22c2-1.83,3.87-3,6.17-.73,1.44-1.06,3-2,4.7-.78a14.11,14.11,0,0,1,3.17,3.37c1.14,1.77.14,3.27-1.07,4.69,1.81,2.16,1,3.83-.49,5.44L187,205h0a60.75,60.75,0,0,1,.47-22.21c1.75-7.59,5.53-14,12.53-15.79.46-.12.94-.23,1.44-.31,12.35-2,15.63,8.28,19,18.8,2.14,6.68,4.31,13.48,8.92,16.62l2.38,1.62-2.78.73c-6.52,1.7-10.7-1.27-14.39-3.91-3.24-2.31-6-4.31-9.83-1.23-3,2.43-3,6.8-1.93,11.27A58.1,58.1,0,0,0,208,223.27l.16.3,7.52,2.25,1.72,7.62c1.47,1.3,5.16,4.71,7.09,2.53,2.28-2.58,2.25-8.56,4.88-10.85,2.8-2.45,5.41-1.39,8.17.1-5.22,3.29-4.39,5-2.51,11,1.13,3.62,2.29,7.3.09,10.21a6.92,6.92,0,0,1-3.58,2.47c2.23,4.31,1.74,11.75,1.48,17.38-5.63-.13-13.09-.17-17.23-2.69Z" transform="translate(0)"/><path class="d" d="M101.5,283.94c27.41,17.64,48.06.79,85.86.79s58.45,16.85,85.86-.79c-1.26,7-2.58,12.86-5.49,19.38-4.75,10.67-11.4,15.2-22.69,15-16.39-.42-33.54-7.32-57.68-7.32s-41.29,6.88-57.68,7.25c-11.29.25-17.94-4.28-22.69-15-2.91-6.52-4.23-12.36-5.49-19.38Z" transform="translate(0)"/><path class="b" d="M174.76,318.44c2.44.62,4-.67,6.41,2.08l2.41,2.81.81-.42-1.16-3c-.86-2.22,2.18-4.33,3.86-4.83,1.67.5,4.71,2.61,3.85,4.83l-1.16,3,.81.42,2.41-2.81c2.37-2.75,4-1.46,6.41-2.08.52,3.78-6.49,1.94-5.42,8.21.23,1.37-.56,1.76-1.69,1.89a4.31,4.31,0,0,0-3.2-3.71h0a6.51,6.51,0,0,0-4,0h0a4.31,4.31,0,0,0-3.2,3.71c-1.13-.13-1.92-.52-1.69-1.89,1.07-6.27-5.94-4.43-5.42-8.21ZM183.14,329c0-4.27,7.89-4.27,7.89,0S183.14,333.26,183.14,329Z" transform="translate(0)"/><path class="f" d="M150,94.89c-.87,1.45-.38,1.7,1.18,1.09s2.32-2.38,3.06-4.19c1.16-2.79,1.87-4.46,4.9-5.44a36.71,36.71,0,0,0,1,6.34c1,4,1.7,7.11-1.52,12.25-3.46,5.53-1.83,10.73-10.12,12.49-2.23-3.59-2.2-6.77-1.23-10.75-2.49,2.32-3.78,6.56-4.75,9.74-3.46-5.24-4.72-9.56-3.44-15.78-4,4.82-4.71,10.08-4.74,16.12-3.28-3.38-5-4.8-5.64-9.59-1.43,3.61-.55,6.86.43,10.43-8.6-3.1-12.13-11.34-7.59-19.28,3.35-5.85,7.38-5.52,11.78-9.26,4-3.42,5.87-9.19,10.56-12,4.85-2.87,12.46-1.85,18.24-2.87C150.33,84.69,155.85,85.26,150,94.89Z" transform="translate(0)"/><path class="g" d="M157.38,76.42c-4.88.68-10.22.11-13.76,3.27-3.22,2.86-5.62,7.9-9.05,10.84-4.46,3.79-8.57,3.34-11.69,9.36a11.53,11.53,0,0,0,3.78,14.72c-1.22-3.57-.41-10.14,3.92-12.77-.48,3,.3,8,2.14,10.46-.32-5.81,3.82-14,10.41-17.47-.87,2.15-4.47,8.7-1,17.16a13,13,0,0,1,8.87-9.6c-1.64,2.75-3.38,9.3-1.49,13.11,5.49-2,4.3-6.44,7.49-11.58,3.8-6.06,1-8.83.56-14.36-2,2.58-1.31,7-7,8.5-2.56.68-3.76-1.73-2.45-3.79C153.11,86.43,149.77,83.83,157.38,76.42Z" transform="translate(0)"/><path class="b" d="M127.18,121.51a.25.25,0,0,0-.28.22v1.74c7.89-.19,15.82-.19,23.72,0v-1.69a.25.25,0,0,0-.23-.27H127.18Z" transform="translate(0)"/><path class="b" d="M132.07,125.4c-1.14,0-7.47.08-9.5.67a2,2,0,0,0-1.57,2.22,14.21,14.21,0,0,0,0,2.26c0,1.31.71,1.75,2.42,2A68.31,68.31,0,0,0,132,133h13.5a68.93,68.93,0,0,0,8.5-.41c1.71-.29,2.38-.73,2.43-2a17,17,0,0,0,0-2.26,2,2,0,0,0-1.43-2.26c-2-.59-8.36-.67-9.5-.67Z" transform="translate(0)"/><path class="b" d="M127.18,136.9a.25.25,0,0,1-.28-.22v-1.74c7.89.2,15.82.2,23.72,0v1.69a.25.25,0,0,1-.23.27H127.18Z" transform="translate(0)"/><path class="b" d="M144.94,334.37c-.37-4.25,7.5-4.94,7.87-.69S145.32,338.61,144.94,334.37Zm-9.26-9.8c2.48.41,4-1,6.56,1.52l2.65,2.58.77-.48-1.42-2.93c-1-2.13,1.79-4.5,3.42-5.14,1.72.35,4.92,2.19,4.27,4.47l-.9,3.13.85.34,2.15-3c2.12-2.95,3.83-1.8,6.2-2.63.85,3.72-6.3,2.5-4.68,8.65.35,1.35-.41,1.8-1.52,2-1-5.3-10.35-4.47-10.39.91-1.13,0-2-.35-1.84-1.74.52-6.34-6.31-3.89-6.12-7.71Z" transform="translate(0)"/><path class="b" d="M175.72,121.51a.25.25,0,0,0-.28.22v1.74c7.9-.19,15.83-.19,23.72,0v-1.69a.25.25,0,0,0-.23-.27H175.72Z" transform="translate(0)"/><path class="b" d="M180.61,125.4c-1.14,0-7.46.08-9.5.67a2,2,0,0,0-1.53,2.22,17,17,0,0,0,0,2.26c0,1.31.72,1.75,2.43,2a67.5,67.5,0,0,0,8.53.42H194a67.5,67.5,0,0,0,8.53-.42c1.71-.29,2.38-.73,2.42-2a14.21,14.21,0,0,0,0-2.26,2,2,0,0,0-1.53-2.22c-2-.59-8.35-.67-9.49-.67Z" transform="translate(0)"/><path class="b" d="M175.72,136.9a.25.25,0,0,1-.28-.22v-1.74c7.9.2,15.83.2,23.72,0v1.69a.25.25,0,0,1-.23.27H175.72Z" transform="translate(0)"/><path class="a" d="M150.09,159c3.81-2.06,4.24-3.89,5.53-7.68,4.47,4.7,6,7.45,1,12.4-1.58,1.59-3.39,3.39-3.18,6.67.1,1.51,1.39,1.66,1.82.45A8.85,8.85,0,0,1,159,166.4c2.8-2.05,2.7-2.82,3.25-5.93,5,4,5.92,7,3.58,12.86-1.37,3.44-1.19,4.09-.94,7.51a7.91,7.91,0,0,1-6.47-4c-1.06,3.26.6,5.09,2.12,7.77-4.38-.46-6.34-1.34-9.13-5-.4,4.65,2.24,6.22,5.31,8.93-3.61.41-5.51.63-8.76-1.23.91,3.2,2.36,3.74,5,5.21-6.15,2.79-12.78,3.07-17.48-2.39-2.53-2.93-3.94-7.9-2.47-11.57,1-2.56,3.32-4.54,6.41-6.51,3.59-2.28,4.43-3,5.79-7,1.1-3.33,1.66-4.39,4.83-6.09Z" transform="translate(0)"/><path class="e" d="M162.87,202.24a45.59,45.59,0,0,1-4.45,3.76c-1.65,1-2.11,1.17-3,.52a12.88,12.88,0,0,1-2.73-2.93c-.59-.89-.41-1.34.72-2.92a47.84,47.84,0,0,1,4-4.18L168.62,186a45.09,45.09,0,0,1,4.45-3.71c1.65-1,2.12-1.18,3-.53a13.1,13.1,0,0,1,2.73,2.93c.59.9.41,1.35-.73,2.92a43.89,43.89,0,0,1-4,4.18Zm-6.75-48.53c-2.24,6.56-6.26,5.7-8.25,8.48-1.41,2-1.56,5.19-3.5,7.61-3.37,4.26-11.59,5-10.37,13.79.91,6.84,7.77,11.59,16.22,8.92-3-1.63-3.92-5.39-3.89-8.21a10.1,10.1,0,0,0,7.43,3.38c-3.76-2.75-4.44-7.16-2.76-11.43.9,2.58,4.44,6.33,7.24,6.88-1.89-2.65-1.94-5.72.46-9.54-.1,2.34,2.86,5.23,4.87,5.82-1.17-6.38,6-9.79-.37-16.71-.85,4.75-5.34,4.4-6.71,8.59-.68,2.11-4,2.38-4.24-.77-.56-8.85,10.8-8.08,3.92-16.81ZM207,244.14c4.46,4.81,4.27,13.27,8.08,17.25,3.39,3.55,12,3.34,16.6,3.49.16-4.56,1-13.17-2.32-16.8-3.71-4.08-12.16-4.48-16.65-9.26Zm-13.63-6,14.26-13.31,6.16,1.85-19,17.73-1.41-6.27Zm13.38-14.28c-3.29-6.21-9.83-19.89-2.89-25.52,8.86-7.19,12.46,8.08,24.71,4.88-12.21-8.31-8-38.27-27-35.21-15,2.43-15.58,26.76-12.91,39.23L204,226.42l2.73-2.55ZM196.2,233.7l-30.29-27.88,11.48-10.71,25.7,32.16Zm-3.7,3.45c-6-3.72-19.16-11.2-25.26-4.67-7.79,8.34,7.19,13,3.15,25-7.39-12.76-37.63-10.62-33.24-29.36,3.46-14.79,27.77-13.68,40-10.15l18.06,16.62-2.73,2.55Z" transform="translate(0)"/><path class="h" d="M154.73,194.38c-1.43,1.33-2.61,2.49-1,4.34.21-.22,1.1-1.22,3.06-3l11.12-10.45c2-1.82,3-2.64,3.25-2.83-1.73-1.7-3-.61-4.4.72l-12,11.22Zm10,10.74c-1.42,1.32-2.67,2.42-4.4.71.23-.19,1.29-1,3.24-2.83l11.16-10.4c2-1.83,2.85-2.82,3.05-3,1.58,1.84.41,3-1,4.34l-12,11.22Zm37.13,42,14.26-13.3-1.41-6.27-19,17.73,6.16,1.84Zm-9.37-10c-6-3.72-19.16-11.2-25.26-4.67-7.79,8.34,7.19,13,3.15,25-.77-15.24-21.9-14.51-15.65-26.63,7.49-14.53,31.3-4.74,40.5,3.75l-2.74,2.56Zm14.29-13.33c-3.29-6.21-9.83-19.89-2.89-25.52,8.86-7.19,12.46,8.08,24.71,4.88-15.15-1.83-13-22.86-25.48-17.47-15,6.47-6.91,30.9.92,40.67l2.74-2.56Zm24,23.88a5.4,5.4,0,0,0,4-3.59c1.72-5.06-6.46-14.84.22-18.63a4.57,4.57,0,0,0-4.83.62c-3.45,3-2.14,18.49-13.21,8.75l-3.3,3.08c4.39,4.67,13.37,4.89,17.08,9.77Zm-16.13,15a5.42,5.42,0,0,1-3.87,3.78c-5.17,1.37-14.35-7.47-18.6-1.07a4.56,4.56,0,0,1,1-4.78c3.24-3.23,18.6-.84,9.65-12.56l3.3-3.08c4.35,4.7,4,13.68,8.56,17.71Z" transform="translate(0)"/><path class="e" d="M123.88,298.42c.13,1.91.35,4.21.48,6.12a25.47,25.47,0,0,0,2.62.22c1.59.05,1.75-.59,1.72-2h.5c.12,1.78.22,3.47.33,5.25H129c-.26-1.44-.35-2.17-2-2.23a20.88,20.88,0,0,1-2.61-.22c.1,1.61.2,3.15.31,4.75.06,1,.22,1.61,1.08,1.67s1.41,0,2.1.06c1.92.08,2.65-.92,3.25-2.87l.5.07a25.31,25.31,0,0,1-.8,3.55,36.83,36.83,0,0,1-9.61-.39v-.59c1.47.28,1.72-.05,1.62-1.59-.21-3.24-.56-7.18-.76-10.42-.08-1.38-.42-1.79-1.88-2.14v-.6a48,48,0,0,0,9.65.62l.36,3.43h-.52c-.41-1.79-.86-2.46-2.5-2.5-1.11,0-2.13-.06-3.27-.17Zm-4.7-1.52c0,1.5.06,2.57.21,4.3l-.5-.13a6,6,0,0,0-4.73-4.65c-2-.24-2.29,2.1-.69,3.4,1.85,1.51,5.87,3.61,7.08,5.88,1.89,3.53-.6,7.1-3.64,5.45a13.64,13.64,0,0,1-2.6-2c-.54-.52-.78-.4-.46.32l-.48-.33a29.73,29.73,0,0,1-1.37-4.7l.57.28a11.82,11.82,0,0,0,4.43,5.65c1.67,1.06,3-.5,2.07-2.58-1.06-2.29-4.48-3.81-6.54-6s-2-5.84.78-6.23a6.36,6.36,0,0,1,4.38,1.5c.7.5,1,.66,1-.26l.51.12Zm42.9-4.23c.09,1.76.17,3.14.26,4.9l-.47.11c-.24-1.37-.73-2.74-2.15-3.27-2.35-.86-5,1.75-3.39,3.58,1.07,1.2,4.19,2.4,5.65,3.36,2.08,1.36,2.13,3.49.79,5.35a5,5,0,0,1-5.4,1.56c-1.06-.3-1.68-.59-1.76.67l-.49.1c-.08-1.72,0-2.56-.08-4.28l.5-.15c.29,1.41.46,2.1,1.9,2.69a3.67,3.67,0,0,0,4-.8c.92-1.24.29-2.19-1-3-1.7-1.09-4.62-2-5.7-3.93-1.91-3.44,1.91-7.09,5.45-6.16.95.25,1.31.41,1.43-.57l.47-.13Zm-15.27,4c.09,2,.17,3.59.26,5.56.91-.14,1.82-.29,2.73-.46,1.5-.27,1.87-.91,1.87-2.27l.48-.11c.07,1.81.12,3,.2,4.79l-.48.11c-.21-1.33-.68-1.79-2-1.55-.91.16-1.82.32-2.73.46.08,1.66.15,3,.22,4.67,0,1-.11,1.67,1,1.48.71-.12,1.43-.27,2.14-.42,2.34-.51,2.92-2,3.54-3.91l.51-.16c-.23,1.46-.66,3.06-1,4.47-3.15.57-6.21,1.21-9.92,1.8v-.56c1.74-.23,1.81-.83,1.74-2.48-.16-3.33-.32-6.1-.47-9.43-.08-1.69-.4-2-1.92-1.86v-.57c3.38-.54,6.27-1.13,10-1.82.12,1.17.24,2.17.35,3.3l-.49.12c-.4-1.84-.68-2.24-2.56-1.84-1.12.24-2.06.42-3.42.68Zm-11.28,14.4a6.86,6.86,0,0,0,1.92.06,4.33,4.33,0,0,0,3.32-2.26,8.76,8.76,0,0,0,.3-7.29c-.78-2.11-2.32-3.78-4.63-3.4a6.48,6.48,0,0,0-1.79.47c.28,4.2.59,8.22.88,12.42Zm-3.66,1.61a5.61,5.61,0,0,1,0-.58c1.72-.09,1.72-.64,1.62-2.28-.2-3.22-.44-6.28-.64-9.49-.11-1.72-.2-2.16-1.89-2.06v-.66a48.81,48.81,0,0,0,5.12-.4c2.73-.44,5-.17,6.6,2.47a9.43,9.43,0,0,1,.14,9.3,6.55,6.55,0,0,1-5.24,3.1c-1.89.23-3.77.48-5.68.6Zm61.45-14.45a2.71,2.71,0,0,0,3.13-.64,4.43,4.43,0,0,0,.55-4.11,2.53,2.53,0,0,0-2.25-1.82,4.18,4.18,0,0,0-1.17.1C193.49,293.76,193.4,296.19,193.32,298.23Zm-16.89-7.37c0,1.72.06,3,.1,4.74l-.49.06c-.26-1.73-1-3.24-2.68-3.51a2.8,2.8,0,0,0-2.63.88c-1.22,1.42-.58,2.65.81,3.49s3.22,1.37,4.51,2.31c2.29,1.68,1.57,5.2-.5,6.83-1.44,1.13-2.82,1-4.55.56-1.08-.24-1.57-.64-1.72.57l-.51.06c0-1.7,0-2.89-.08-4.6l.5-.1c.27,1.48.56,2.34,2,3a3.07,3.07,0,0,0,3.61-.44,2.59,2.59,0,0,0,0-3.65l-.27-.23c-1.4-1-3.2-1.41-4.59-2.43a3.89,3.89,0,0,1-.74-5.45,3,3,0,0,1,.28-.33,4.53,4.53,0,0,1,3.91-1.51c1.29.14,2.25,1.39,2.54-.24h.51Zm28,15.19v.61c-2-.24-3.58-.4-5.71-.57l.07-.64c1.76,0,1.84-.17,2-2,.29-3.24.59-6.36.89-9.6.17-1.75.14-2.16-1.7-2.28A1.94,1.94,0,0,1,200,291c2,.12,4,.49,5.92.68,0,.21-.05.41-.07.62-1.62-.21-1.94,0-2.12,1.8-.32,3.24-.63,6.32-.93,9.57-.17,1.82-.08,2.13,1.64,2.37Zm6.78-12.53c-.21,1.9-.43,3.8-.64,5.7.91.15,1.82.31,2.72.48,1.57.3,1.92-.12,2.17-1.64l.48.1c-.21,1.76-.37,3.24-.57,5l-.48-.11c0-1.33-.12-2.11-1.68-2.43-.91-.18-1.83-.32-2.74-.48-.19,1.72-.36,2.84-.54,4.56-.11,1-.31,1.56.83,1.76l2.3.38c2,.31,2.58-.3,3.74-2.13l.5.13c-.52,1.18-1,2.32-1.5,3.51-3.65-.67-6.6-1.06-9.84-1.51v-.62c1.65.13,1.85,0,2-1.73.36-3.32.67-6.27,1-9.6.19-1.77,0-2.1-1.6-2.36l.07-.62c3.39.49,6.63,1.06,10,1.67-.09,1.14-.22,2-.3,3.13l-.5-.11c0-1.63-.34-2.16-2.06-2.51-1.14-.23-2.31-.41-3.49-.58Zm7.59.3,3.27.63c1.88,4.06,3.85,7.7,5.78,11.73.33-2.76.6-5,.92-7.79.19-1.64,0-2.1-1.42-2.35a1.68,1.68,0,0,1,.07-.58c1.37.25,2.75.52,4.21.75l-.06.59c-1.45-.24-1.68,0-1.87,1.62-.48,4.21-.92,8-1.42,12.22l-.45-.07c-2.1-4.34-4.22-8.27-6.26-12.64-.37,3-.75,5.68-1.07,8.63-.18,1.68,0,1.94,1.38,2.27l-.11.6c-1.4-.28-2.86-.5-4.28-.78a3.22,3.22,0,0,1,.13-.6c1.36.22,1.77-.05,1.94-1.66.37-3.44.83-6.63,1.27-10.07-.52-1.06-.88-1.7-2.11-1.93a3.72,3.72,0,0,1,.08-.57Zm23.87,3.71c-.1,1.28-.24,2.48-.33,3.76h-.49c0-1.47-.1-2.76-1.84-2.94-.56-.06-1.19-.14-1.76-.18-.45,3.9-.82,7.31-1.27,11.22-.2,1.71,0,2.15,1.56,2.31a4.86,4.86,0,0,1-.07.55c-1.83-.19-3.88-.53-5.58-.8a1.49,1.49,0,0,1,.07-.55c1.52.23,1.84,0,2.06-1.79.47-3.88.84-7.3,1.3-11.18l-1.45-.18c-1.81-.22-2.41.62-2.75,2.39l-.49-.06c.2-1.23.39-2.53.59-3.76a96.64,96.64,0,0,0,10.45,1.22Zm11.71.71c-.75,2-1.46,4.2-2.08,6.22.79-.16,1.58-.33,2.38-.52C254.61,302.59,254.44,299.57,254.38,298.24Zm-12.65,14.35.06-.61c1.58.08,1.78-.4,2-2,.42-3.35.74-6.28,1.2-9.62.25-1.79-.2-1.94-1.55-2l.06-.72c2.21.12,4,.07,5.81,0l-.09.72c-1.52.11-1.94.44-2.22,2.24-.51,3.32-.86,6.24-1.33,9.58-.18,1.32-.2,2.18,1.2,2.18,1.1,0,1.61-.31,2.2-2.05,1.46-4.2,3-8.91,4.46-13.08a41.41,41.41,0,0,0,7.45-1.69c.07,1.06.06,1.46.13,2.5l-.46.24c-.15-1.13-.51-1.61-1.71-1.23-.87.28-2.19.61-3,.78.1,1.87.24,3.89.32,5.76.66-.19,1.33-.38,2-.61,1.28-.43,1.39-1,1.39-2.28l.45-.16c0,1.66.07,2.88.1,4.54l-.43.18c-.12-1.08-.11-1.83-1.46-1.36-.67.23-1.35.43-2,.63.06,1.52.11,3,.16,4.54,0,.68-.14,1.57.73,1.24.51-.19,1.23-.46,1.74-.69,1-.45,1.75-1.35,2.32-3.23l.47-.24c-.29,1.35-.38,1.93-.66,3.28a20.41,20.41,0,0,1-7.24,2.92v-.56c1.39-.41,1.25-1.09,1.19-2.45s-.13-2.93-.2-4.41l-2.85.66c-.6,1.67-1.17,3.38-1.77,5-.52,1.43-.28,1.88,1.26,1.55v.55a48.18,48.18,0,0,1-9.68-.08ZM184.78,299.7c-.71-1.89-1.41-3.78-2.12-5.66-.69,2-1.29,3.89-2,5.84,1.39-.07,2.7-.13,4.09-.18Zm8.51-.7c-.06,1.42-.11,2.62-.17,4-.07,1.77,0,2.07,1.75,2.2v.6c-3.33-.2-6.35-.21-9.86-.19v-.54c.86-.08,1.52-.42,1.27-1.31s-.85-2.39-1.13-3.15c-1.61.06-3.13.13-4.74.22-.24.68-.82,2.24-1.08,3.17s.55,1.2,1.37,1.22v.54c-1.27.06-2.74.14-4.13.26v-.53a1.77,1.77,0,0,0,1.54-1.35c1.34-3.32,4.13-11.43,4.87-13.84h.42c.67,1.77,3.75,10.29,5,13.27.35.83.68,1.38,1.68,1.4s1.11-1,1.16-2c.16-3.22.26-6.54.39-9.76.07-1.8,0-2.1-1.75-2.2v-.55c1.59.08,3.18.08,4.77.19,1.81.13,3.34.59,4.34,2.23a4.71,4.71,0,0,1-.6,5.48c-1.36,1.32-3.43,1.19-5.06.68Z" transform="translate(0)"/><path class="f" d="M198.54,94.89c-.88,1.45-.39,1.7,1.17,1.09s2.29-2.38,3.08-4.19c1.15-2.78,1.87-4.46,4.89-5.44a37.69,37.69,0,0,0,1,6.34c1,4,1.7,7.11-1.51,12.25-3.46,5.53-1.84,10.73-10.13,12.49-2.22-3.59-2.2-6.77-1.22-10.75-2.5,2.32-3.79,6.56-4.75,9.74-3.46-5.24-4.72-9.56-3.44-15.78-4,4.82-4.71,10.08-4.75,16.12-3.28-3.38-5-4.8-5.63-9.59-1.43,3.61-.55,6.86.42,10.43C169,114.5,165.5,106.26,170,98.32c3.4-5.85,7.42-5.52,11.83-9.26,4-3.42,5.86-9.19,10.55-12,4.85-2.87,12.46-1.85,18.25-2.87-11.8,10.45-6.28,11-12.13,20.65Z" transform="translate(0)"/><path class="g" d="M205.92,76.42c-4.87.68-10.21.11-13.75,3.27-3.17,2.86-5.59,7.9-9.06,10.84-4.46,3.79-8.53,3.34-11.68,9.36a11.53,11.53,0,0,0,3.77,14.72c-1.2-3.61-.4-10.14,3.92-12.77-.47,3,.3,8,2.15,10.46-.32-5.81,3.82-14,10.41-17.47-.87,2.15-4.48,8.7-1,17.16a13,13,0,0,1,8.79-9.6c-1.65,2.75-3.38,9.3-1.5,13.11,5.52-2,4.34-6.44,7.56-11.58,3.79-6.06,1-8.83.55-14.36-2,2.58-1.3,7-6.94,8.5-2.67.68-3.84-1.73-2.53-3.79,5-7.84,1.66-10.44,9.26-17.85Z" transform="translate(0)"/><path class="f" d="M247.08,94.89c-.88,1.45-.39,1.7,1.18,1.09s2.32-2.38,3.07-4.19c1.16-2.78,1.87-4.46,4.9-5.44a35.86,35.86,0,0,0,1,6.34c1,4,1.7,7.11-1.52,12.25-3.46,5.53-1.83,10.73-10.12,12.49-2.23-3.59-2.2-6.77-1.23-10.75-2.49,2.32-3.78,6.56-4.75,9.74-3.46-5.24-4.72-9.56-3.44-15.78-4,4.82-4.71,10.08-4.74,16.12-3.28-3.38-5-4.8-5.64-9.59-1.43,3.61-.55,6.86.43,10.43-8.65-3.1-12.17-11.34-7.64-19.28,3.37-5.85,7.37-5.52,11.78-9.26,4-3.42,5.87-9.19,10.56-12,4.85-2.87,12.46-1.85,18.24-2.87-11.79,10.45-6.27,11-12.13,20.65Z" transform="translate(0)"/><path class="g" d="M254.47,76.42c-4.88.68-10.22.11-13.76,3.27-3.22,2.86-5.59,7.9-9.05,10.84-4.46,3.79-8.53,3.34-11.66,9.36a11.53,11.53,0,0,0,3.78,14.72c-1.22-3.57-.41-10.14,3.92-12.77-.48,3,.3,8,2.14,10.46-.32-5.81,3.82-14,10.41-17.47-.87,2.15-4.47,8.7-.95,17.16a13,13,0,0,1,8.79-9.6c-1.64,2.75-3.38,9.3-1.49,13.11,5.51-2,4.33-6.44,7.55-11.58,3.79-6.06,1-8.83.56-14.36-2,2.58-1.31,7-7,8.5-2.66.68-3.84-1.73-2.53-3.79,5-7.84,1.66-10.44,9.27-17.85Z" transform="translate(0)"/><path class="a" d="M318.74,94.09a21.42,21.42,0,0,0,4.83-1.85c-4.86,6.69,1.32,16.66,9.08,11.68,7.35-4.68-3.65-15.55,5.08-21.14,8-5.13,14.84,3.06,15.64,10.57a23.74,23.74,0,0,0-3.82.87c4.84-11.37-13-14.71-10.86-2,.87,5.27,2.48,10.52-2.9,14-8.53,5.47-17.77-3.37-17-12.14Zm28.44,28.54c-2-2.85-5.22-8.43-9.49-6.37-6.22,3-.27,11,4.14,8.94ZM339,126.5c-5.54-1.8-10.52-10.15-3.54-13.51,7.85-3.76,8.79,6.89,13.61,8.86,3.58-1.72,6.32-3.6,4.24-8-1.45-3-5.51-3.62-5.89-4.42l2.32-1a12,12,0,0,1,5.76,5.78c6.18,12.87-18.09,11.46-14.71,18.46l-.76.57c-2.08-2.19-4.21-4.57-1-6.78Zm2.71,12.1a192.58,192.58,0,0,0,21.74-6.1,8.09,8.09,0,0,0,1,3.66c-1.33.38-2.69.71-4,1.08,8.58,2.24,9.77,13,.35,15.67-4.67,1.31-9.32,2.52-14,3.94a8.77,8.77,0,0,0-1-3.75c4.4-1,8.77-2.17,13.11-3.39,8.35-2.34,6.57-11.68-.77-11.38-4.44.18-11.14,2.59-15.33,4.1a9.32,9.32,0,0,0-1.08-3.83Zm26.68,20.48a19.19,19.19,0,0,0,2-.26c.09,1,.19,2,.34,3.05,1.85-.28,3.68-.6,5.51-.94a12.54,12.54,0,0,0,1.75,3.58c-2.32.24-4.58.56-6.88.91.31,2,.74,4.08,1.24,6.09a19,19,0,0,0-2,.16,44.84,44.84,0,0,0-.82-6c-4.43.36-9,1.07-13.38,1.74-10.29,1.56-1.8,7-4.84,8.53-4-4.39-3.78-10.86,3.16-11.91,4.82-.74,9.68-1.22,14.51-2a25.68,25.68,0,0,0-.6-3Zm-5.24,32.07c-.79-3.4-1.67-9.77-6.41-9.47-6.88.44-4.37,10.15.5,9.85Zm-9.06.5c-4.46-3.74-6-13.34,1.78-13.84,8.68-.56,5.57,9.68,9.3,13.3,4-.25,7.21-1,6.9-5.77-.21-3.34-3.74-5.42-3.8-6.31l2.53-.07a11.93,11.93,0,0,1,3.17,7.52c.91,14.24-21,3.83-20.54,11.61l-.92.24c-1.13-2.81-2.19-5.82,1.58-6.68Zm-3,23.78c9.8,5.2,20.54,9.31,30.78,13.54l-.21.77c-9.56,1.89-19.12,3.83-28.59,6.1q10.5,10.41,21.29,20.51l-.16.6c-11-1.82-22.05-3.49-33.08-5.17a10.39,10.39,0,0,0,1.13-4.12c7.67,1.52,15.85,3.38,23.67,3.9-6-6.24-12.6-13.16-19.72-18.11l.17-.63c8.35-.11,18-3.42,26.08-5.29-7.23-3.14-14.74-6.39-22.33-8.57a7.81,7.81,0,0,0,1-3.53Zm-7.67,60.37c1-3.4,3.37-10.94-1-13-6.88-3.25-8.63,8.44-4.32,10.48l5.35,2.54Zm-8.17-4c-2.09-5.46.4-16.59,8.25-12.88s.14,12.62,1.7,17.77c6.29,3,11.87-4.57,8.4-10.35l.16-.34,2.24,1.17c1.75,6.82-4.13,16.53-11.87,12.86-1.22-.61-9.12-5.26-11-4.91-.92.17-1.23,1.23-1.58,2l-.92-.23c.38-3,.9-6.15,4.62-5.07Zm-8.59,9.2c5.88,4.38,12.2,9.1,18.6,12.7A9.49,9.49,0,0,0,343,297a46.44,46.44,0,0,0-4.18-3.22c2,3.45,3,6.47-.06,9.4A19.27,19.27,0,0,0,335.9,301v-.44c8.82-5-7.2-13.92-11.44-16.41a10.81,10.81,0,0,0,2.21-3.15Zm-9.76,14.19c5.56,5.08,11.26,10,17.19,14.6a10.46,10.46,0,0,0-2.54,3c-5.54-5.1-11.27-9.94-17.18-14.6a9.16,9.16,0,0,0,2.53-3Zm23.87,19.66c2.43,2.06-.71,5.75-3.14,3.69a2.42,2.42,0,0,1,3.14-3.69Zm-32.57,5.31c2-2.83,6.28-7.67,2.94-11.05-4.85-4.91-10.53,3.35-7.11,6.83Zm-6.33-6.51c-.17-10,12.94-14.12,13.53-2.26.14,2.69-5.67,7-5.86,10.26,3.22,3.25,9,6.2,10.81,0,.32-1.09-.09-3.48.37-3.93l1.71,1.86a12,12,0,0,1-3.59,7.33c-8.28,8.17-17.17-14.59-22.26-9.52l-.78-.54c1.38-2.68,2.94-5.47,6.07-3.18Zm-56-269a301.13,301.13,0,0,0,12.81-33.49,28.52,28.52,0,0,0,3.7,1.42A349.67,349.67,0,0,0,249.57,46a13.41,13.41,0,0,0-3.67-1.41ZM287.4,42c-8.13-5.07-18.63,11.71-10.92,16.51C284.57,63.51,295.48,47,287.4,42Zm-5.55,21.48a25.15,25.15,0,0,0,2.47-3.9c-5.54,3.26-12.9.33-13.87-6.36a12.71,12.71,0,0,1,8.28-14c6-2.18,13,.25,13,8.45,3-4.88,6.14-9.73,9-14.73a7,7,0,0,0,3.48,2.17c-6.73,9.83-12.9,20.18-19,30.43a8.94,8.94,0,0,0-3.35-2.09Zm24.8,17.14c-9.8-1.2-15.59-11.72-8.11-19.76,10.1-10.85,26.6,1.7,15.28,13.73l-12-11.19C295,70.58,299,79.1,308.34,78.91c-.59.55-1.15,1.09-1.69,1.67ZM303,62.21l9.21,8.57C320.13,62.28,310.52,54.68,303,62.21ZM50.81,330a12.19,12.19,0,0,0-2.94-3.22c4.36-3.81,8.74-7.63,13-11.52,5.48-4.94,9.24-10.22,3.31-16.77-3.34-3.71-7.6-4.78-12-2.21a49.14,49.14,0,0,0-6.79,5.41q-5.55,5-11,10.17a6.42,6.42,0,0,0-2-2.27c5.35-4.44,11.74-10.83,17.08-14.5,6.27-4.3,11.89-3.1,16.93,2.49,6.6,7.31,5.53,13.36-1.56,19.77-4.7,4.13-9.59,8.25-14,12.65Zm1.41-49.91A203.57,203.57,0,0,0,32.3,290.75a8.64,8.64,0,0,0-1.79-3.35c1.24-.66,2.46-1.25,3.71-1.93-3.38-.13-6-1.4-7.64-4.45-2.59-4.84-.62-8.34,3.93-10.77,4.31-2.3,8.52-4.43,12.79-6.85a8.43,8.43,0,0,0,1.83,3.44c-4.08,1.88-8.11,4-12.08,6.12-3.29,1.76-5.71,4.33-3.68,8.14,2.63,4.9,7.47,2.9,11.27.9,3.25-1.73,6.6-3.41,9.7-5.38a8.84,8.84,0,0,0,1.88,3.52ZM40.06,255.3c-7.09,2.57-14,5.34-20.9,8.47a10.25,10.25,0,0,0-1.47-3.63c7.13-2.58,14-5.39,20.9-8.48A8.6,8.6,0,0,0,40.06,255.3Zm-28.48,12A2.4,2.4,0,0,1,8.44,266v0a2.4,2.4,0,0,1,1.32-3.14h0A2.44,2.44,0,0,1,13,264.09l0,.08a2.43,2.43,0,0,1-1.34,3.17h0ZM34,237.65c-6.63,4.21-13.3,9.81-19.39,14.79a11.69,11.69,0,0,0-1.15-4.26c5.36-3,10.91-7.6,15.68-11.5a91.24,91.24,0,0,0-19.35-2.11A5.44,5.44,0,0,0,9,231.66c7.57,1.22,16.68,2.94,24.26,3.28A9.47,9.47,0,0,0,34,237.65Zm-7.87-33.86a13.44,13.44,0,0,1,3.4,7.85c.61,6.86-3.86,11.66-10.6,12.26S6.81,221,6.18,214c-.66-7.48,4.11-10,10.58-10.52l1.45,16.36c5.37-.55,9.91-2.64,9.37-8.88a10.24,10.24,0,0,0-3.83-7,17.31,17.31,0,0,0,2.38-.11Zm-9.58,16.09-1.11-12.52c-4,.36-8.21,1.76-7.77,6.69C8.07,218.53,12.67,220.05,16.55,219.88Zm11.81-24.22a196.91,196.91,0,0,0-22.53,0,9.92,9.92,0,0,0,0-4.06,46.42,46.42,0,0,0,5.27.3c-3.76-1.8-6.15-3.55-5.26-7.8a20,20,0,0,0,3.62.23l.23.37c-3.08,6.34,4.78,7.33,9,7.32,3.2,0,6.47,0,9.66-.24a11.31,11.31,0,0,0,0,3.85Zm-4.24-16.07c2.24-1.11,4-2.76,4.29-5.33.34-2.73-.95-4.8-3.77-5.14-2.46-.3-3.47,1.22-4.35,3.27l-.87,2.11c-1.33,3.19-3.16,4.81-6.74,4.37-4.22-.51-6.16-4-5.67-8a11.29,11.29,0,0,1,2.27-5.72,14.59,14.59,0,0,0,2.89,1.34c-1.81,1.19-3.55,2.86-3.82,5.13a3.85,3.85,0,0,0,3.12,4.46l.38,0c2.42.29,3.55-1,4.42-3.13l1.34-3.1c1.18-2.8,2.88-4.28,6-3.9,4.8.58,7,4.83,6.43,9.32a10.83,10.83,0,0,1-2.44,5.91,38,38,0,0,0-3.5-1.6Zm8.14-19.08c-7.33-1.82-14.61-3.4-22.06-4.66A10.4,10.4,0,0,0,11,152c7.33,1.85,14.61,3.37,22.06,4.66a8.6,8.6,0,0,0-.81,3.83ZM1.92,154.58A2.38,2.38,0,0,1,0,151.79l0-.08a2.38,2.38,0,0,1,2.8-1.89h.06a2.44,2.44,0,0,1,1.91,2.87h0a2.43,2.43,0,0,1-2.9,1.87Zm16.7-21.46c-1.82,5.31,2.87,8.51,7.27,10C30,144.53,35.46,145,37.17,140c1.9-5.52-3.13-8.72-7.65-10.27-4.16-1.43-9.21-1.58-10.9,3.35Zm22.19.57a26.91,26.91,0,0,0-4.37-1.52,8.48,8.48,0,0,1,2.12,9.37c-2.11,6.16-8.18,7.33-13.82,5.4-5.88-2-10.36-7.07-8.15-13.52a8.34,8.34,0,0,1,6.62-5.76c-5.44-1.87-10.86-3.79-16.37-5.44a6.76,6.76,0,0,0,1.33-3.89c11,4.31,22.66,8.06,33.92,11.64A8.4,8.4,0,0,0,40.81,133.69ZM41,106.8c-1.41,4-2,6.71-1.94,8.13a3.93,3.93,0,0,0,2.24,3.3c2.41,1.34,4.64,1,6-1.53,1.15-2.09,1.31-5.7-1.13-7Zm7.91,4.46a9.56,9.56,0,0,1-.67,7.74c-1.85,3.34-4.75,4.9-8.31,2.93-3.22-1.78-3.77-4.5-2.79-7.87.58-1.9,2.48-6.83,2.12-8.35-1.67-.93-3.7-2.08-5.67-1.68-4,.82-5,6.49-3.28,9.86l-.18.33L28,113c-.8-4.21,1.37-11,5.82-12.15,2.33-.61,4.74.57,6.74,1.67l7.06,4.12c2.77,1.53,3.69,2.6,5.31-.4l.91.29c-.61,3-1.23,6.11-4.93,4.77Zm-1-30.32c-3.68,4.24-.53,9,3,12,3.22,2.83,8.09,5.35,11.59,1.37,3.82-4.41.36-9.26-3.25-12.39-3.33-2.88-7.94-4.91-11.36-1Zm20.34,8.85a28.38,28.38,0,0,0-3.48-3,8.47,8.47,0,0,1-1.54,9.48C59,101.17,52.86,100,48.39,96.1c-4.7-4.07-7-10.44-2.49-15.59a8.36,8.36,0,0,1,8.29-2.86c-4.34-3.77-8.65-7.6-13.14-11.18a6.71,6.71,0,0,0,2.69-3.1c8.62,8.15,17.93,15.91,27.09,23.49a8.39,8.39,0,0,0-2.58,3ZM88,67.23a13.52,13.52,0,0,1-4.21,7.44c-5.12,4.61-11.65,3.93-16.18-1.09s-5-11.45.25-16.14c5.5-5,10.43-2.79,14.76,2.11l-12.2,11c3.57,4,8.18,6.24,12.74,2.13a10.17,10.17,0,0,0,3.32-7.3c.51.64,1,1.23,1.52,1.84Zm-18.62,2,9.34-8.42c-2.73-3-6.34-5.5-10-2.18-3.33,3-1.83,7.61.68,10.6Zm38.56-12.5A316.88,316.88,0,0,0,92.59,27.9c5-2.36,10.2-5.3,15.07-8,.49.91,1,1.83,1.46,2.74-3.69,1-8.14,3.45-11.55,5.26,1.74,3.58,3.64,7.1,5.53,10.62a107.41,107.41,0,0,0,10.3-5.94A24.54,24.54,0,0,0,114.71,35c-3.62,1.68-7.14,3.39-10.67,5.26,2.15,4,5.42,10.55,7.85,14.33a13.8,13.8,0,0,0-4,2.11Zm35.75-18.49a13.5,13.5,0,0,1-6.6,5.44c-6.43,2.47-12.28-.5-14.71-6.82s-.57-12.45,6-15c7.06-2.72,10.61,1.21,13,7.26l-15.29,5.93c1.93,5,5.34,8.78,11.12,6.56A10.18,10.18,0,0,0,142.92,36c.24.78.48,1.5.77,2.26Zm-18.11-4.77,11.73-4.53c-1.45-3.76-3.94-7.4-8.57-5.62C124.55,24.94,124.3,29.76,125.58,33.47Zm31.56-17c-5.51,1.08-5.93,6.73-5,11.3.79,4.23,3.11,9.23,8.28,8.23,5.74-1.12,6-7.07,5.07-11.77-.84-4.31-3.23-8.75-8.35-7.75ZM167.74,36a26.84,26.84,0,0,0-.87-4.53,8.45,8.45,0,0,1-7.05,6.51c-6.39,1.25-10.44-3.42-11.58-9.27-1.2-6.09.93-12.51,7.63-13.81a8.38,8.38,0,0,1,8.3,2.85C163.06,12,162,6.39,160.69.79a6.71,6.71,0,0,0,4-.79c1.78,11.7,4.35,23.65,6.89,35.19a8.58,8.58,0,0,0-3.87.75Zm29.86-3.85a13.51,13.51,0,0,1-8.12,2.71c-6.89,0-11.28-4.87-11.29-11.64s3.93-11.81,11-11.83c7.51,0,9.56,5,9.56,11.45H182.32c0,5.43,1.9,10.12,8,10.11a10.18,10.18,0,0,0,7.35-3.21c0,.82-.1,1.57-.09,2.39Zm-15.2-11H195c0-4.06-1-8.33-6-8.32-4.5,0-6.46,4.41-6.59,8.33ZM206,35.65c1.11-6.84,2.48-15.37,2.71-22.36a10.07,10.07,0,0,0,4,.49,48,48,0,0,0-.94,5.2c2.27-3.57,4.31-5.66,8.38-4.27a20.5,20.5,0,0,0-.67,3.56l-.39.19c-5.88-3.84-7.85,3.73-8.37,8.08-.39,3.18-.77,6.42-.94,9.62a11.43,11.43,0,0,0-3.81-.51Zm30.92-6.34c-4.21-.4-7-.38-8.36.08a3.93,3.93,0,0,0-2.65,3c-.71,2.67.18,4.73,2.94,5.47,2.32.62,5.83-.11,6.55-2.8l1.52-5.72Zm-2.4,8.75a9.63,9.63,0,0,1-7.71,1.26c-3.69-1-5.9-3.43-4.85-7.36.94-3.55,3.46-4.74,7-4.6,2,.1,7.23.74,8.61,0,.49-1.85,1.13-4.1.26-5.91-1.73-3.59-7.49-3.32-10.36-.79l-.36-.1.74-2.41c3.78-1.75,11-1.39,13.19,2.7,1.15,2.12.6,4.75,0,7l-2.28,7.85c-.81,3-1.66,4.11,1.67,5.06l-.07,1c-2.87.18-6.22.27-5.81-3.63Z" transform="translate(0)"/><path class="a" d="M155.34,381.79c.3-7.92.51-16,.24-24l-6,3.49a5.28,5.28,0,0,0-1.28-1.82,106.49,106.49,0,0,0,10.92-5c-.48,9-.54,18.29-.28,27.29a10.14,10.14,0,0,0-3.56,0Zm18-25.87c-3.91,0-5.46,3.91-5.46,7.28s1.75,6,5.34,6c3.94,0,5.28-3.23,5.28-6.69s-1.29-6.6-5.16-6.6Zm-6.44,25.15v-2.19c3.22,2.5,6.95,2,9.29-1.43a17,17,0,0,0,2.46-10.18c-1.39,2.54-3.79,3.5-6.59,3.5-4.54,0-7.35-3.11-7.35-7.58,0-5.2,3.78-8.49,8.86-8.49,6.49,0,8.63,5.4,8.63,11.07q0,7.23-3.16,11.6a10.16,10.16,0,0,1-12.14,3.7Zm23.47-7.46c0,3.11,1.47,6.9,5.11,6.9,3.94,0,5.26-3.6,5.26-7s-1.15-6.47-5-6.47-5.36,3.22-5.36,6.55ZM190.1,369a8.13,8.13,0,0,1,6.71-3.37c4.48,0,7.34,2.86,7.34,7.35,0,5.34-3.3,8.86-8.7,8.86-6.47,0-8.69-5.57-8.69-11.21q0-7.11,3.32-11.53c2.65-3.55,6.83-5.34,11.13-4V357c-3-2.32-6.66-.3-8.44,2.51A21,21,0,0,0,190.1,369Zm17.82-.68c0-6.27,1.59-13.53,9.25-13.53,7.81,0,9.29,7.13,9.29,13.53s-1.65,13.52-9.29,13.52S207.92,374.57,207.92,368.32Zm3.34,0c0,4.21,0,12.28,6,12.28,6.2,0,5.91-8.41,5.91-12.74,0-4.11-.22-11.76-5.91-11.76C211.29,356.1,211.26,364.1,211.26,368.32Z" transform="translate(0)"/></svg>